<svg width="184" height="302" viewBox="0 0 184 302" fill="white" xmlns="http://www.w3.org/2000/svg">
<path d="M85.2595 301C37.4912 301 30.1504 293.127 30.1504 293.127L31.959 195.569L31.8526 162.908L27.3843 190.995C27.3843 190.995 20.3627 190.995 12.2772 190.144C4.19165 189.292 1 187.165 1 187.165C1 187.165 18.4477 33.54 33.7676 27.0503C47.2789 20.2414 60.7902 14.6029 60.7902 14.6029C62.4924 12.0495 61.8541 12.2623 67.1735 8.11318C72.4929 3.96404 75.0462 1.14474 76.5357 1.14474H106.431C107.92 0.0276735 113.027 5.66625 116.538 8.11318C120.048 10.5601 121.219 11.5176 123.027 14.6029C123.027 14.6029 144.199 23.2203 150.05 27.2631C164.944 32.2633 182.498 187.165 182.498 187.165C182.498 187.165 177.179 189.292 170.477 190.144C163.774 190.995 156.22 190.995 156.22 190.995L151.859 161.1V195.569L153.561 293.127C153.561 293.127 147.284 301 85.2595 301Z" />
<path d="M85.2595 301C37.4912 301 30.1504 293.127 30.1504 293.127L31.959 195.569M85.2595 301C147.284 301 153.561 293.127 153.561 293.127L151.859 195.569M85.2595 301C85.2595 301 84.302 115.672 85.6851 100.777M31.959 195.569H60.7693C65.1876 195.569 68.7693 191.988 68.7693 187.569V140.673M31.959 195.569L31.8526 162.908M151.859 195.569H122.942C118.524 195.569 114.942 191.988 114.942 187.569V140.673M151.859 195.569V161.1M68.7693 140.673L68.6954 151.906C68.6774 154.643 66.4617 156.857 63.7244 156.873L31.8526 157.057M68.7693 140.673H33.1293M31.8526 157.057V162.908M31.8526 157.057H31.3207L33.1293 140.673M151.752 156.95H120.164C117.441 156.95 115.218 154.771 115.165 152.048L114.942 140.673M151.752 156.95L151.859 161.1M151.752 156.95L152.497 156.844L150.582 140.673M114.942 140.673H150.582M33.7676 27.0503C18.4477 33.54 1 187.165 1 187.165C1 187.165 4.19165 189.292 12.2772 190.144C20.3627 190.995 27.3843 190.995 27.3843 190.995L31.8526 162.908M33.7676 27.0503C47.2789 20.2414 60.7902 14.6029 60.7902 14.6029M33.7676 27.0503C33.7676 27.0503 38.8742 42.583 39.5126 58.5412C40.1509 74.4994 33.1293 140.673 33.1293 140.673M150.582 140.673C150.582 140.673 143.454 74.2867 144.199 58.5412C144.943 42.7957 150.05 27.2631 150.05 27.2631M150.05 27.2631C164.944 32.2633 182.498 187.165 182.498 187.165C182.498 187.165 177.179 189.292 170.477 190.144C163.774 190.995 156.22 190.995 156.22 190.995L151.859 161.1M150.05 27.2631C144.199 23.2203 123.027 14.6029 123.027 14.6029M60.7902 14.6029C58.1305 19.4967 55.5772 32.2633 55.5772 32.2633L66.216 33.54M60.7902 14.6029C62.4924 12.0495 61.8541 12.2623 67.1735 8.11318C72.4929 3.96404 75.0462 1.14474 76.5357 1.14474M66.216 33.54C66.216 33.54 74.5143 26.1992 76.5357 25.0289M66.216 33.54L56.7475 41.0935C56.7475 41.0935 78.557 73.6483 88.4511 87.0533M76.5357 1.14474H106.431M76.5357 1.14474C76.5357 1.14474 74.5143 4.28319 74.5143 9.60261M106.431 1.14474C107.92 0.0276735 113.027 5.66625 116.538 8.11318C120.048 10.5601 121.219 11.5176 123.027 14.6029M106.431 1.14474C106.431 1.14474 109.622 4.70875 109.09 9.60261M91.8024 76.7336V9.60261M91.8024 76.7336C91.8024 76.7336 103.558 40.3488 107.069 24.9225M91.8024 76.7336L76.5357 25.0289M91.8024 76.7336L88.4511 87.0533M123.027 14.6029C125.155 19.7095 128.24 32.2633 128.24 32.2633L117.708 33.54M107.069 24.9225C108.665 25.4545 117.708 33.54 117.708 33.54M107.069 24.9225C109.09 17.1562 109.09 9.60261 109.09 9.60261M117.708 33.54L126.964 41.0935C126.964 41.0935 113.878 62.052 106.324 71.5206C98.7708 80.9891 85.6851 100.777 85.6851 100.777M85.6851 100.777C86.0042 96.4154 88.4511 87.0533 88.4511 87.0533M109.09 9.60261H91.8024M74.5143 9.60261H91.8024M74.5143 9.60261C74.5143 9.60261 73.6632 13.4326 76.5357 25.0289M31.427 126.098C24.7246 115.991 24.7246 104.927 24.7246 104.927M31.8526 137.056C28.2354 133.758 24.1926 130.885 24.1926 130.885M152.497 135.354C156.433 131.949 159.199 128.226 159.199 128.226M153.135 125.672C161.753 116.736 161.008 105.458 161.008 105.458M96.7494 105.033C96.7494 103.035 95.13 101.416 93.1322 101.416C91.1345 101.416 89.515 103.035 89.515 105.033C89.515 107.031 91.1345 108.65 93.1322 108.65C95.13 108.65 96.7494 107.031 96.7494 105.033ZM96.7494 137.056C96.7494 135.058 95.13 133.439 93.1322 133.439C91.1345 133.439 89.515 135.058 89.515 137.056C89.515 139.053 91.1345 140.673 93.1322 140.673C95.13 140.673 96.7494 139.053 96.7494 137.056ZM96.7494 168.334C96.7494 166.336 95.13 164.717 93.1322 164.717C91.1345 164.717 89.515 166.336 89.515 168.334C89.515 170.332 91.1345 171.951 93.1322 171.951C95.13 171.951 96.7494 170.332 96.7494 168.334Z" stroke="black" stroke-linecap="round"/>
<path d="M27.1715 181.313C16.8518 181.739 3.4469 178.547 3.4469 178.547M180.477 178.334C170.157 182.058 156.114 181.101 156.114 181.101M151.539 193.761L122.928 193.673C119.628 193.663 116.956 190.99 116.946 187.69L116.857 156.206M152.071 154.61H120.525C118.941 154.61 117.63 153.379 117.531 151.799L116.963 142.801M66.8543 142.482L66.6124 151.592C66.5694 153.214 65.2449 154.507 63.6227 154.512L31.7462 154.61M66.8543 156.312L66.586 187.881C66.5579 191.189 63.8574 193.851 60.5492 193.83L32.0653 193.654M63.0243 12.5815L58.3432 29.7101L69.4076 30.5612M120.793 13.4326L125.368 29.7101L116.538 30.7739M106.856 27.0503C107.282 28.6462 123.985 41.3064 123.985 41.3064C123.985 41.3064 103.771 70.9887 86.9617 94.8197M76.8548 27.3695L59.9391 41.3064C59.9391 41.3064 85.7914 80.8828 89.1958 83.5425" stroke="black" stroke-linecap="round" stroke-dasharray="0.5 2"/>
<path d="M91.8024 9.60254H74.5143C74.5143 9.60254 73.6632 13.4325 76.5357 25.0288L91.8024 76.7335V9.60254Z" fill="black" fill-opacity="0.4"/>
<path d="M109.091 9.60254H91.8024V76.7335C91.8024 76.7335 103.558 40.3487 107.069 24.9224C109.091 17.1561 109.091 9.60254 109.091 9.60254Z" fill="black" fill-opacity="0.4"/>
<path d="M91.8024 76.7335V9.60254M91.8024 76.7335C91.8024 76.7335 103.558 40.3487 107.069 24.9224C109.091 17.1561 109.091 9.60254 109.091 9.60254H91.8024M91.8024 76.7335L76.5357 25.0288C73.6632 13.4325 74.5143 9.60254 74.5143 9.60254H91.8024" stroke="black" stroke-linecap="round" fill="none" />
</svg>
