<svg width="24" height="24" viewBox="0 0 24 24" fill="none" xmlns="http://www.w3.org/2000/svg">
<path d="M23.5202 12.2729C23.5202 11.422 23.4438 10.6038 23.302 9.81836H12V14.4657H18.4583C18.1747 15.9603 17.3237 17.2258 16.0473 18.0767V21.0986H19.942C22.2111 19.004 23.5202 15.9276 23.5202 12.2729Z" fill="#4285F4"/>
<path d="M11.9981 24.0003C15.2381 24.0003 17.9545 22.9312 19.94 21.0984L16.0454 18.0765C14.9763 18.7965 13.6126 19.2329 11.9981 19.2329C8.87802 19.2329 6.22706 17.1274 5.27795 14.291H1.28516V17.3893C3.25974 21.3057 7.30708 24.0003 11.9981 24.0003Z" fill="#34A853"/>
<path d="M5.28009 14.2804C5.04009 13.5604 4.89827 12.7967 4.89827 12.0003C4.89827 11.204 5.04009 10.4403 5.28009 9.72031V6.62207H1.2873C0.469099 8.23664 0 10.0585 0 12.0003C0 13.9422 0.469099 15.7641 1.2873 17.3786L4.39644 14.9568L5.28009 14.2804Z" fill="#FBBC05"/>
<path d="M11.9981 4.77827C13.7654 4.77827 15.3363 5.38919 16.5909 6.56739L20.0273 3.13096C17.9436 1.18911 15.2381 0 11.9981 0C7.30708 0 3.25974 2.69459 1.28516 6.62194L5.27795 9.72017C6.22706 6.88376 8.87802 4.77827 11.9981 4.77827Z" fill="#EA4335"/>
</svg>
