<svg width="148" height="302" viewBox="0 0 148 302" fill="white" xmlns="http://www.w3.org/2000/svg">
<path fill-rule="evenodd" clip-rule="evenodd" d="M135.559 14.1732L134.066 1L98.2348 5.74236L98.147 5.4789L94.7465 5.83984L94.8098 6.08015C83.4808 7.14751 71.2736 6.79622 71.2736 6.79622V7.14751L53.9728 6.35712L53.9832 6.08015L50.9868 5.74236L50.899 6.00583C24.3769 3.19554 13.9261 1 13.9261 1L12.2575 14.1732C11.7925 17.9401 11.1304 21.6332 10.4278 25.5523C9.80364 29.0341 9.14745 32.6944 8.56902 36.7434L8.04209 40.7832C8.04209 40.7832 -5.57025 129.922 5.05616 289.582L5.40744 296.959C5.40744 296.959 16.5608 300.998 30.4366 300.998C44.3124 300.998 54.6753 297.486 54.6753 297.486L55.0266 291.338C55.3637 288.035 56.3345 272.806 57.5966 253.009C59.6232 221.219 62.4008 177.65 64.5114 152.756C67.9364 112.358 71.2736 91.8953 71.4493 91.3684C71.6249 90.8415 72.5909 91.544 72.5909 91.544C72.5909 91.544 73.8204 91.8075 75.4012 91.3684C75.4012 91.3684 76.7186 90.8415 76.8942 91.3684C77.0698 91.8953 79.5288 108.142 83.4808 152.756C85.7084 177.903 87.6012 210.221 89.2535 238.433C90.5325 260.272 91.6675 279.651 92.7021 291.338L93.0534 297.486C93.0534 297.486 101.045 301.086 117.468 300.998C133.89 300.911 142.321 296.607 142.321 296.607L142.76 289.933C153.299 166.105 140.301 40.1684 140.301 40.1684L139.774 36.3043C139.316 32.5334 138.236 27.4321 137.256 22.8015C136.548 19.4517 135.891 16.3482 135.559 14.1732Z" />
<path d="M73.9961 1H13.9261C13.9261 1 24.3769 3.19554 50.899 6.00583L50.9868 5.74236L53.9832 6.08015L53.9728 6.35712L71.2736 7.14751V6.79622C71.2736 6.79622 83.4808 7.14751 94.8098 6.08015L94.7465 5.83984L98.147 5.4789L98.2348 5.74236L134.066 1H73.9961Z" />
<path d="M13.9261 1C13.9261 1 33.4225 1 73.9961 1M13.9261 1L12.2575 14.1732M13.9261 1C13.9261 1 24.3769 3.19554 50.899 6.00583M13.9261 1H73.9961M134.066 1C134.066 1 114.57 1 73.9961 1M134.066 1L135.559 14.1732M134.066 1L98.2348 5.74236M134.066 1H73.9961M71.2736 7.14751L53.9728 6.35712M71.2736 7.14751V19.7938M71.2736 7.14751V6.79622C71.2736 6.79622 83.4808 7.14751 94.8098 6.08015M12.2575 14.1732C12.2575 14.1732 26.9237 17.0713 44.3124 18.6521M12.2575 14.1732C11.7925 17.9401 11.1304 21.6332 10.4278 25.5523C9.80364 29.0341 9.14745 32.6944 8.56902 36.7434M135.559 14.1732L103.065 18.5643M135.559 14.1732C135.891 16.3482 136.548 19.4517 137.256 22.8015C138.236 27.4321 139.316 32.5334 139.774 36.3043M71.2736 19.7938C71.2736 19.7938 68.9903 19.1791 51.6894 19.2669M71.2736 19.7938V20.1451M72.5909 91.544C72.5909 91.544 71.6249 90.8415 71.4493 91.3684C71.2736 91.8953 67.9364 112.358 64.5114 152.756C62.4008 177.65 59.6232 221.219 57.5966 253.009C56.3345 272.806 55.3637 288.035 55.0266 291.338M72.5909 91.544C72.5909 91.544 73.8204 91.8075 75.4012 91.3684M72.5909 91.544C72.3275 76.9656 71.9762 66.6027 71.9762 66.6027M47.6496 18.9156L47.474 24.4484H51.6894V19.2669M47.6496 18.9156C48.3522 11.5386 50.899 6.00583 50.899 6.00583M47.6496 18.9156L44.3124 18.6521M47.6496 18.9156C47.6496 18.9156 46.8592 33.5818 34.0373 39.1146C21.2153 44.6473 8.04209 40.7832 8.04209 40.7832M51.6894 19.2669C51.7772 12.329 53.9728 6.35712 53.9728 6.35712M53.9728 6.35712L53.9832 6.08015L50.9868 5.74236L50.899 6.00583M95.4246 19.4425V24.4484L99.8156 24.1849L99.5522 19.0034M95.4246 19.4425C95.4246 13.0316 94.8098 6.08015 94.8098 6.08015M95.4246 19.4425L84.359 19.9695M71.2736 20.1451L71.9762 66.6027M71.2736 20.1451L81.9 20.0573M94.8098 6.08015L94.7465 5.83984L98.147 5.4789L98.2348 5.74236M98.2348 5.74236C98.2348 5.74236 98.9374 9.07958 99.5522 19.0034M99.5522 19.0034L103.065 18.5643M99.5522 19.0034C99.5522 19.0034 101.133 35.8652 116.063 40.1684C130.992 44.4717 140.301 40.1684 140.301 40.1684M71.9762 66.6027C71.9762 66.6027 73.9961 69.3252 74.6987 72.4867M75.4012 91.3684C75.4012 91.3684 76.7186 90.8415 76.8942 91.3684C77.0698 91.8953 79.5288 108.142 83.4808 152.756C85.7084 177.903 87.6012 210.221 89.2535 238.433C90.5325 260.272 91.6675 279.651 92.7021 291.338M75.4012 91.3684L74.9621 75.9996M74.9621 75.9996C74.9621 74.1554 74.6987 72.4867 74.6987 72.4867M74.9621 75.9996C74.9621 75.9996 85.0616 72.3989 85.0616 61.8603C85.0616 51.3218 84.359 19.9695 84.359 19.9695M84.359 19.9695L81.9 20.0573M74.6987 72.4867C74.6987 72.4867 82.427 70.6425 82.6904 61.3334C82.9539 52.0243 81.9 20.0573 81.9 20.0573M55.0266 291.338L54.6753 297.486C54.6753 297.486 44.3124 300.998 30.4366 300.998C16.5608 300.998 5.40744 296.959 5.40744 296.959L5.05616 289.582M55.0266 291.338C55.0266 291.338 44.1367 294.851 29.9097 294.412C15.6826 293.973 5.05616 289.582 5.05616 289.582M92.7021 291.338L93.0534 297.486C93.0534 297.486 101.045 301.086 117.468 300.998C133.89 300.911 142.321 296.607 142.321 296.607L142.76 289.933M92.7021 291.338C92.7021 291.338 102.011 294.939 117.38 294.412C132.749 293.885 142.76 289.933 142.76 289.933M142.76 289.933C153.299 166.105 140.301 40.1684 140.301 40.1684M5.05616 289.582C-5.57025 129.922 8.04209 40.7832 8.04209 40.7832M8.04209 40.7832L8.56902 36.7434M8.56902 36.7434C8.56902 36.7434 19.5467 40.2562 31.4026 36.3921C43.2585 32.5279 44.3124 18.6521 44.3124 18.6521M140.301 40.1684L139.774 36.3043M139.774 36.3043C139.774 36.3043 131.958 40.1684 117.731 36.7434C103.504 33.3183 103.065 18.5643 103.065 18.5643M33.3347 107.44C40.7117 103.576 56.0805 99.5358 69.3415 90.3145M36.3206 84.5183C36.3206 84.5183 53.1824 86.4504 65.3896 86.4504M23.85 65.5488C40.1848 72.0476 54.1484 75.3849 64.0723 80.3907M44.2246 166.105C50.1964 161.538 59.3299 146.52 59.3299 146.52M6.90042 169.969C17.8781 180.683 24.5526 181.213 29.9097 185.777C35.2668 190.34 36.8476 194.032 41.4143 198.247M120.366 83.201C125.899 81.708 133.363 80.6542 133.363 80.6542M79.441 86.4504C86.9937 90.3145 101.045 91.3684 113.867 93.037M82.3391 82.4984C95.8637 76.2631 118.17 73.365 118.17 73.365M84.886 112.885C84.886 112.885 94.1072 130.361 104.734 141.778M112.989 184.547C115.448 181.561 126.162 178.663 131.783 175.238C137.403 171.813 138.369 168.915 140.126 167.422M90.9457 186.391C95.3367 192.89 96.3028 195.7 100.957 200.531C105.612 205.361 108.159 205.449 110.53 207.644M117.819 255.595C121.068 252.784 133.715 242.421 138.194 234.781M96.0393 263.06C103.943 268.504 123.088 270.085 128.358 274.564M111.32 280.009C126.162 279.658 125.02 274.037 125.02 274.037M12.521 277.287C20.3371 272.72 29.734 277.199 33.8616 277.814C37.9893 278.428 40.6239 278.78 41.7656 279.394M23.1474 259.459C26.9237 254.892 47.6496 250.501 52.3042 239.172M79.968 13.6463C79.968 11.9972 78.6311 10.6604 76.982 10.6604C75.3329 10.6604 73.9961 11.9972 73.9961 13.6463C73.9961 15.2954 75.3329 16.6322 76.982 16.6322C78.6311 16.6322 79.968 15.2954 79.968 13.6463Z" stroke="black" stroke-linecap="round" fill="none" />
<path d="M73.9961 1H13.9261C13.9261 1 24.3769 3.19554 50.899 6.00583L50.9869 5.74236L53.9832 6.08015L53.9728 6.35712L71.2736 7.14751V6.79622C71.2736 6.79622 83.4808 7.14751 94.8098 6.08015L94.7465 5.83984L98.147 5.4789L98.2349 5.74236L134.066 1H73.9961Z" fill="black" fill-opacity="0.4" />
<path d="M13.9261 1C13.9261 1 33.4225 1 73.9961 1M13.9261 1C13.9261 1 24.3769 3.19554 50.899 6.00583L50.9869 5.74236L53.9832 6.08015L53.9728 6.35712L71.2736 7.14751V6.79622C71.2736 6.79622 83.4808 7.14751 94.8098 6.08015L94.7465 5.83984L98.147 5.4789L98.2349 5.74236L134.066 1M13.9261 1H73.9961M134.066 1C134.066 1 114.57 1 73.9961 1M134.066 1H73.9961" stroke="black" stroke-linecap="round" fill="none" />
</svg>
