<svg width="24" height="24" viewBox="0 0 24 24" fill="none" xmlns="http://www.w3.org/2000/svg">
<g clip-path="url(#clip0_2363_1457)">
<path d="M11.9527 1.11035C5.48469 1.11035 0.238281 5.28727 0.238281 10.4419C0.238281 13.7524 2.41268 16.6589 5.67428 18.319L4.57028 22.4717C4.55267 22.5235 4.54762 22.5789 4.55555 22.6332C4.56348 22.6874 4.58417 22.7389 4.61588 22.7834C4.6476 22.828 4.68941 22.8642 4.73784 22.8891C4.78627 22.914 4.83991 22.9269 4.89428 22.9267C4.96875 22.9236 5.04026 22.8964 5.09828 22.8492L9.84309 19.6161C10.5418 19.7181 11.2467 19.7698 11.9527 19.771C18.4327 19.771 23.6671 15.5965 23.6671 10.4419C23.6671 5.28727 18.4207 1.11035 11.9527 1.11035Z" fill="black"/>
</g>
<defs>
<clipPath id="clip0_2363_1457">
<rect width="24" height="22" fill="white" transform="translate(0 1)"/>
</clipPath>
</defs>
</svg>
