<svg width="302" height="302" viewBox="0 0 302 302" fill="white" xmlns="http://www.w3.org/2000/svg">
<path d="M153.662 295.095C89.2762 295.453 62.9964 289.958 62.9964 289.958V279.566L65.0271 181.256C65.0271 181.256 48.5425 276.221 44.0033 276.102C39.1057 286.016 38.8668 296.887 38.389 299.634C37.9112 302.381 27.7576 300.351 19.0375 299.037C13.1373 298.148 6.9636 296.712 3.58776 295.876C2.108 295.51 1.17044 294.076 1.39621 292.569L4.70306 270.487C1 267.382 8.64503 230.709 27.1603 131.204C45.6757 31.6996 53.2012 34.3276 53.2012 34.3276C54.993 26.5631 82.4674 17.0068 105.402 5.18088L115.198 1C115.198 1 127.262 6.49487 151.631 6.49487C176 6.49487 186.87 1 186.87 1L196.426 5.18088C209.685 12.8259 249.225 25.0102 249.225 34.3276C249.225 34.3276 257.347 40.1808 272.638 119.259C287.928 198.337 301.067 262.603 297.245 270.487C299.634 295.095 302.143 292.825 301.067 295.095C299.992 297.364 268.218 300.231 265.351 300.709C262.484 301.187 263.201 287.33 257.945 276.221C254.839 278.013 236.682 182.331 236.682 182.331L238.952 279.566V289.361C238.952 289.361 218.047 294.736 153.662 295.095Z" />
<path d="M62.9964 279.566V289.958C62.9964 289.958 89.2762 295.453 153.662 295.095C218.047 294.736 238.952 289.361 238.952 289.361V279.566M62.9964 279.566C62.9964 279.566 101.341 285.061 153.662 284.463C205.982 283.866 238.952 279.566 238.952 279.566M62.9964 279.566L65.0271 181.256M238.952 279.566L236.682 182.331M65.0271 181.256C65.0271 181.256 69.0886 93.4571 64.7882 66.4606C60.4879 39.4641 53.2012 34.3276 53.2012 34.3276M65.0271 181.256C65.0271 181.256 48.5425 276.221 44.0033 276.102M236.682 182.331C236.682 182.331 232.143 95.4878 236.682 66.4606C241.221 37.4333 249.225 34.3276 249.225 34.3276M236.682 182.331C236.682 182.331 254.839 278.013 257.945 276.221M53.2012 34.3276C54.993 26.5631 82.4674 17.0068 105.402 5.18088M53.2012 34.3276C53.2012 34.3276 45.6757 31.6996 27.1603 131.204C8.64503 230.709 1 267.382 4.70306 270.487M249.225 34.3276C249.225 25.0102 209.685 12.8259 196.426 5.18088M249.225 34.3276C249.225 34.3276 257.347 40.1808 272.638 119.259C287.928 198.337 301.067 262.603 297.245 270.487M4.70306 270.487L1.39621 292.569C1.17044 294.076 2.108 295.51 3.58776 295.876C6.9636 296.712 13.1373 298.148 19.0375 299.037C27.7576 300.351 37.9112 302.381 38.389 299.634C38.8668 296.887 39.1057 286.016 44.0033 276.102M4.70306 270.487C4.70306 270.487 15.5733 272.996 25.488 274.549C35.4026 276.102 44.0033 276.102 44.0033 276.102M257.945 276.221C257.945 276.221 289.839 273.354 297.245 270.487M257.945 276.221C263.201 287.33 262.484 301.187 265.351 300.709C268.218 300.231 299.992 297.364 301.067 295.095C302.143 292.825 299.634 295.095 297.245 270.487M105.402 5.18088C105.402 5.18088 111.375 42.6893 150.795 42.6893C190.215 42.6893 196.426 5.18088 196.426 5.18088M105.402 5.18088L115.198 1M196.426 5.18088L186.87 1M115.198 1C115.198 1 127.262 6.49487 151.631 6.49487C176 6.49487 186.87 1 186.87 1M115.198 1C115.198 1 115.437 5.77814 117.973 11.7962M186.87 1C186.87 1 186.273 5.8976 184.003 11.7508M120.358 16.0458C120.358 16.0458 130.966 33.6108 151.273 33.6108C171.58 33.6108 181.716 16.0891 181.716 16.0891M120.358 16.0458C118.71 13.3573 117.973 11.7962 117.973 11.7962M120.358 16.0458C120.358 16.0458 134.908 19.3959 151.631 19.3959C168.355 19.3959 181.716 16.0891 181.716 16.0891M117.973 11.7962C117.973 11.7962 131.085 15.3344 151.631 15.3344C172.177 15.3344 184.003 11.7508 184.003 11.7508M181.716 16.0891C182.689 14.7372 184.003 11.7508 184.003 11.7508" stroke="black" stroke-linecap="round" fill="none" />
<path d="M115.197 1C115.197 1 127.262 6.49487 151.631 6.49487C175.999 6.49487 186.869 1 186.869 1C186.869 1 186.272 5.8976 184.003 11.7508C184.003 11.7508 182.689 14.7372 181.716 16.0891C181.716 16.0891 171.579 33.6108 151.272 33.6108C130.965 33.6108 120.358 16.0458 120.358 16.0458C118.71 13.3573 117.973 11.7962 117.973 11.7962C115.436 5.77814 115.197 1 115.197 1Z" fill="black" fill-opacity="0.4"/>
<path d="M120.358 16.0458C120.358 16.0458 130.965 33.6108 151.272 33.6108C171.579 33.6108 181.716 16.0891 181.716 16.0891M120.358 16.0458C118.71 13.3573 117.973 11.7962 117.973 11.7962M120.358 16.0458C120.358 16.0458 134.907 19.3959 151.631 19.3959C168.354 19.3959 181.716 16.0891 181.716 16.0891M117.973 11.7962C115.436 5.77814 115.197 1 115.197 1C115.197 1 127.262 6.49487 151.631 6.49487C175.999 6.49487 186.869 1 186.869 1C186.869 1 186.272 5.8976 184.003 11.7508M117.973 11.7962C117.973 11.7962 131.085 15.3344 151.631 15.3344C172.177 15.3344 184.003 11.7508 184.003 11.7508M181.716 16.0891C182.689 14.7372 184.003 11.7508 184.003 11.7508" stroke="black" stroke-linecap="round" fill="none" />
</svg>
