<svg width="170" height="302" viewBox="0 0 170 302" fill="white" xmlns="http://www.w3.org/2000/svg">
<path d="M78.3064 301V300.471C33.4248 299.518 26.862 294.543 26.862 294.543C26.862 294.543 26.3327 281.523 26.862 269.773C27.3912 258.024 27.8146 257.706 27.8146 257.706C27.8146 257.706 26.862 252.202 27.4971 242.993C28.1322 233.784 29.4024 227.856 29.4024 227.856C29.4024 227.856 28.979 219.917 29.4024 212.931C29.8258 205.944 30.8844 198.535 30.8844 198.535C30.8844 198.535 31.2019 189.431 31.5195 183.292C31.837 177.152 33.4248 167.731 33.4248 167.731L32.8956 164.238L30.5668 173.659C30.5668 173.659 28.1322 191.654 23.1571 192.395L22.3993 195.869C22.084 197.314 20.992 198.475 19.5194 198.614C19.081 198.655 18.5959 198.684 18.0762 198.69C16.7368 198.706 15.1295 198.685 13.4187 198.575C12.8289 198.538 12.2268 198.49 11.6192 198.429C10.3421 198.301 9.16979 198.106 8.12604 197.882C6.86628 197.613 5.7938 197.303 4.95046 197.024C3.64024 196.59 2.86578 195.316 2.91593 193.936L3.04511 190.384C-1.29485 187.102 2.6217 169.849 2.6217 169.849C2.6217 169.849 2.30414 163.497 3.04511 158.311C3.78609 153.124 6.00899 143.809 6.00899 143.809C6.00899 143.809 6.22069 137.246 7.70263 129.307C9.18456 121.368 11.0899 117.24 11.0899 117.24C11.0899 117.24 11.0899 111.947 13.1011 104.008C15.1123 96.0692 17.5469 90.0356 17.5469 90.0356C17.5469 90.0356 19.7698 79.9796 23.6864 71.723C27.6029 63.4665 31.3078 60.3968 31.3078 60.3968C33.4248 56.1627 55.548 47.5886 55.548 47.5886C55.548 47.5886 51.1022 43.9896 51.4198 38.1677C51.7374 32.3458 54.9129 22.5015 54.9129 22.5015C54.9129 22.5015 58.3002 1.64853 84.7634 1.01342C111.227 0.378301 114.826 22.5015 114.826 22.5015C114.826 22.5015 118.107 32.6634 118.53 38.1677C118.954 43.6721 114.19 47.8003 114.19 47.8003C114.19 47.8003 129.01 52.6696 138.537 60.3968C138.537 60.3968 142.347 63.2548 146.264 71.723C150.18 80.1913 152.192 90.0356 152.192 90.0356C152.192 90.0356 154.838 96.0692 156.849 104.008C158.86 111.947 158.86 117.24 158.86 117.24C158.86 117.24 160.554 121.368 162.036 129.307C163.518 137.246 163.73 144.338 163.73 144.338C163.73 144.338 165.952 152.383 166.588 158.311C167.223 164.238 167.223 169.849 167.223 169.849C167.223 169.849 171.245 185.832 166.588 190.384L166.78 193.545C166.875 195.099 166.158 196.611 164.682 197.106C163.837 197.389 162.794 197.698 161.612 197.967C160.578 198.202 159.436 198.406 158.225 198.535C157.59 198.602 156.951 198.653 156.32 198.689C154.642 198.786 153.019 198.784 151.662 198.745C151.524 198.741 151.389 198.736 151.256 198.731C149.303 198.651 147.744 197.216 147.247 195.325L146.476 192.395C141.183 190.384 139.595 173.659 139.595 173.659L136.843 164.238L136.631 167.731C136.631 167.731 137.796 175.353 138.325 183.715C138.854 192.078 138.748 198.005 138.748 198.005C138.748 198.005 139.807 205.521 140.336 212.931C140.865 220.34 140.336 227.856 140.336 227.856C140.336 227.856 141.5 233.678 142.136 242.675C142.771 251.673 142.03 257.706 142.03 257.706C142.03 257.706 142.771 261.517 143.3 270.726C143.829 279.935 143.3 294.543 143.3 294.543C143.3 294.543 136.631 301 91.3263 300.471V301H78.3064Z" />
<path d="M55.5481 47.5886C55.5481 47.5886 33.4248 56.1627 31.3078 60.3968M55.5481 47.5886C55.5481 47.5886 51.1022 43.9896 51.4198 38.1677C51.7374 32.3458 54.9129 22.5015 54.9129 22.5015M55.5481 47.5886C56.289 48.4354 60.8407 51.1876 60.8407 51.1876M138.537 60.3968C129.01 52.6696 114.19 47.8003 114.19 47.8003M138.537 60.3968C138.537 60.3968 133.879 75.8513 132.715 83.0493C131.55 90.2473 130.809 105.808 130.809 105.808C130.809 105.808 132.926 115.123 133.244 123.485C133.561 131.847 133.138 136.399 133.138 136.399C133.138 136.399 134.832 140.21 135.784 148.572C136.737 156.934 136.843 164.238 136.843 164.238M138.537 60.3968C138.537 60.3968 142.347 63.2548 146.264 71.723C150.18 80.1913 152.192 90.0356 152.192 90.0356C152.192 90.0356 154.838 96.0692 156.849 104.008C158.86 111.947 158.86 117.24 158.86 117.24C158.86 117.24 160.554 121.368 162.036 129.307C163.518 137.246 163.73 144.338 163.73 144.338C163.73 144.338 165.952 152.383 166.588 158.311C167.223 164.238 167.223 169.849 167.223 169.849C167.223 169.849 171.245 185.832 166.588 190.384M78.3064 300.471V301H91.3263V300.471M78.3064 300.471C33.4248 299.518 26.862 294.543 26.862 294.543C26.862 294.543 26.3327 281.523 26.862 269.773C27.3912 258.024 27.8146 257.706 27.8146 257.706C27.8146 257.706 26.862 252.202 27.4971 242.993C28.1322 233.784 29.4024 227.856 29.4024 227.856C29.4024 227.856 28.979 219.917 29.4024 212.931C29.8258 205.944 30.8844 198.535 30.8844 198.535C30.8844 198.535 31.2019 189.431 31.5195 183.292C31.837 177.152 33.4248 167.731 33.4248 167.731M78.3064 300.471V59.6558M91.3263 300.471C136.631 301 143.3 294.543 143.3 294.543C143.3 294.543 143.829 279.935 143.3 270.726C142.771 261.517 142.03 257.706 142.03 257.706C142.03 257.706 142.771 251.673 142.136 242.675C141.5 233.678 140.336 227.856 140.336 227.856C140.336 227.856 140.865 220.34 140.336 212.931C139.807 205.521 138.748 198.005 138.748 198.005C138.748 198.005 138.854 192.078 138.325 183.715C137.796 175.353 136.631 167.731 136.631 167.731M91.3263 300.471V59.6558M78.3064 40.0731H91.3263M78.3064 40.0731L73.2255 39.4379M78.3064 40.0731V43.6721M63.1695 33.4043C63.1695 33.4043 67.827 31.7107 72.0611 31.0756M63.1695 33.4043C63.1695 33.4043 57.5593 28.2176 61.2641 19.6435C64.9689 11.0694 73.543 8.95237 73.543 8.95237M63.1695 33.4043C63.1695 33.4043 65.2865 35.6273 67.2977 37.1092C69.3089 38.5911 73.2255 39.4379 73.2255 39.4379M136.843 164.238L139.595 173.659C139.595 173.659 141.183 190.384 146.476 192.395M136.843 164.238L136.631 167.731M166.588 190.384L166.78 193.545C166.875 195.099 166.158 196.611 164.682 197.106V197.106M166.588 190.384C166.588 190.384 165.914 190.658 164.47 191.037M32.8956 164.238L33.4248 167.731M32.8956 164.238L30.5668 173.659C30.5668 173.659 28.1322 191.654 23.1571 192.395M32.8956 164.238C32.8956 164.238 33.2131 157.252 34.1658 148.572C35.1185 139.892 36.6004 136.399 36.6004 136.399C36.6004 136.399 35.8594 133.329 36.6004 123.485C37.3414 113.641 39.1409 105.808 39.1409 105.808C39.1409 105.808 38.7175 93.5287 37.0238 83.0493C35.3302 72.5699 31.3078 60.3968 31.3078 60.3968M31.3078 60.3968C31.3078 60.3968 27.6029 63.4665 23.6864 71.723C19.7698 79.9796 17.5469 90.0356 17.5469 90.0356C17.5469 90.0356 15.1123 96.0692 13.1011 104.008C11.0899 111.947 11.0899 117.24 11.0899 117.24C11.0899 117.24 9.18456 121.368 7.70263 129.307C6.22069 137.246 6.00899 143.809 6.00899 143.809C6.00899 143.809 3.78609 153.124 3.04511 158.311C2.30414 163.497 2.6217 169.849 2.6217 169.849C2.6217 169.849 -1.29485 187.102 3.04511 190.384M146.476 192.395L147.247 195.325C147.744 197.216 149.303 198.651 151.256 198.731C151.389 198.736 151.524 198.741 151.662 198.745M146.476 192.395C146.476 192.395 148.096 192.728 150.921 192.768M114.826 22.5015C114.826 22.5015 115.672 29.5936 110.062 35.4155C104.452 41.2374 91.3263 43.6721 91.3263 43.6721M114.826 22.5015C114.826 22.5015 111.227 0.378301 84.7634 1.01342C58.3002 1.64853 54.9129 22.5015 54.9129 22.5015M114.826 22.5015C114.826 22.5015 118.107 32.6634 118.53 38.1677C118.954 43.6721 114.19 47.8003 114.19 47.8003M23.1571 192.395L22.3993 195.869C22.084 197.314 20.992 198.475 19.5194 198.614C19.081 198.655 18.5959 198.684 18.0762 198.69M23.1571 192.395C23.1571 192.395 21.7393 192.76 19.0289 192.812M3.04511 190.384L2.91593 193.936C2.86578 195.316 3.64024 196.59 4.95046 197.024V197.024M3.04511 190.384C3.04511 190.384 3.6915 190.642 5.17596 191.019M33.4248 167.731L38.9292 168.367M136.631 167.731L130.915 168.367M91.3263 59.6558V43.6721M91.3263 59.6558L97.5195 58.5819M91.3263 40.0731L96.6189 39.4379M91.3263 40.0731V43.6721M73.543 8.95237L74.284 30.8639M73.543 8.95237C73.543 8.95237 78.2005 7.47043 84.7634 7.47043C91.3263 7.47043 96.1955 8.95237 96.1955 8.95237M96.1955 8.95237L95.2428 30.8639M96.1955 8.95237C96.1955 8.95237 104.309 10.8577 108.474 19.6435C112.639 28.4293 106.887 33.4043 106.887 33.4043M74.284 30.8639L72.0611 31.0756M74.284 30.8639C74.284 30.8639 80.6352 30.2288 84.7634 30.2288C88.8917 30.2288 95.2428 30.8639 95.2428 30.8639M106.887 33.4043C106.887 33.4043 101.171 31.499 97.6774 31.0756M106.887 33.4043C106.887 33.4043 104.664 35.7331 102.441 37.1092C100.218 38.4853 96.6189 39.4379 96.6189 39.4379M72.0611 31.0756L73.2255 39.4379M95.2428 30.8639L97.6774 31.0756M97.6774 31.0756L96.6189 39.4379M78.3064 59.6558V43.6721M78.3064 59.6558L72.4845 58.5973M78.3064 43.6721C78.3064 43.6721 65.7099 41.3433 59.7822 35.4155C53.8544 29.4878 54.9129 22.5015 54.9129 22.5015M68.3562 53.9398C68.3562 53.9398 64.0163 52.9871 60.8407 51.1876M60.8407 51.1876C60.8407 51.1876 62.4285 56.1627 70.8967 58.3856M70.8967 58.3856L70.4733 79.1327M70.8967 58.3856L71.2143 46.1067M114.19 47.8003C112.073 49.494 109.427 51.0817 109.427 51.0817M101.806 53.9398C101.806 53.9398 106.357 52.6695 109.427 51.0817M109.427 51.0817C105.405 57.3271 98.9477 58.3856 98.9477 58.3856M98.6072 44.2698C98.6072 44.2698 98.205 44.0184 97.8416 44.0332C97.4782 44.0479 97.2847 44.2838 97.2847 44.2838M98.6072 44.2698L98.6301 45.7891M98.6072 44.2698C98.6072 44.2698 99.0528 44.5285 99.0662 44.8274C99.0796 45.1264 99.0535 45.5774 98.6301 45.7891M38.9292 168.367L35.436 187.314L43.375 188.796L51.1022 147.514L42.9516 146.243L38.9292 168.367ZM130.915 168.367L134.408 187.314L126.681 188.796L118.53 147.514L126.681 146.243L130.915 168.367ZM70.4733 79.1327H72.0611M70.4733 79.1327L70.3674 79.8737V84.3195H71.9552L72.1303 79.9412L72.0611 79.1327M72.0611 79.1327L72.4845 58.5973M72.6962 46.5301L72.6823 44.4679M72.6962 46.5301C72.6962 46.5301 73.105 46.1017 73.1279 45.4847C73.1507 44.8678 72.6823 44.4679 72.6823 44.4679M72.6962 46.5301L72.4845 58.5973M72.6823 44.4679C72.6823 44.4679 72.5452 44.1937 72.0611 44.0955C71.577 43.9973 71.2143 44.3072 71.2143 44.3072M71.2143 44.3072V46.1067M71.2143 44.3072C71.2143 44.3072 70.7067 44.5785 70.6943 45.2105C70.682 45.8425 71.2143 46.1067 71.2143 46.1067M98.9477 58.3856L99.2652 79.3444M98.9477 58.3856L98.6301 45.7891M97.2847 44.2838L97.3599 46.3184M97.2847 44.2838C97.2847 44.2838 96.6189 44.7306 96.7248 45.4716C96.8306 46.2125 97.3599 46.3184 97.3599 46.3184M99.2652 79.3444H97.7833M99.2652 79.3444L99.4769 79.5561L99.4415 84.4045H97.8587L97.6774 79.5561L97.7833 79.3444M97.7833 79.3444L97.5195 58.5819M97.3599 46.3184L97.5195 58.5819M13.4187 198.575C12.8289 198.538 12.2268 198.49 11.6192 198.429C10.3421 198.301 9.16979 198.106 8.12604 197.882M13.4187 198.575C15.1295 198.685 16.7368 198.706 18.0762 198.69M13.4187 198.575L14.1596 192.588M14.1596 192.588C13.6508 192.535 13.1215 192.471 12.5719 192.395C10.9741 192.174 9.6046 191.947 8.4436 191.729M14.1596 192.588C16.08 192.789 17.708 192.838 19.0289 192.812M19.0289 192.812L18.0762 198.69M8.12604 197.882C6.86628 197.613 5.7938 197.303 4.95046 197.024M8.12604 197.882L8.4436 191.729M8.4436 191.729C7.07597 191.472 5.9976 191.227 5.17596 191.019M5.17596 191.019L4.95046 197.024M151.662 198.745C153.019 198.784 154.642 198.786 156.32 198.689M151.662 198.745L150.921 192.768M156.32 198.689C156.951 198.653 157.59 198.602 158.225 198.535C159.436 198.406 160.578 198.202 161.612 197.967M156.32 198.689L155.579 192.573M161.612 197.967C162.794 197.698 163.837 197.389 164.682 197.106M161.612 197.967L161.295 191.745M164.682 197.106L164.47 191.037M164.47 191.037C163.66 191.25 162.607 191.496 161.295 191.745M161.295 191.745C160.128 191.966 158.756 192.19 157.167 192.395C156.62 192.466 156.091 192.524 155.579 192.573M155.579 192.573C153.796 192.742 152.229 192.786 150.921 192.768" stroke="black" stroke-linecap="round"/>
<path d="M78.3064 40.0728H91.3263L96.6189 39.4377L97.6774 31.0754L95.2428 30.8637C95.2428 30.8637 88.8917 30.2285 84.7634 30.2285C80.6352 30.2285 74.284 30.8637 74.284 30.8637L72.0611 31.0754L73.2255 39.4377L78.3064 40.0728Z" fill="black" fill-opacity="0.4"/>
<path d="M73.543 8.95215L74.284 30.8637C74.284 30.8637 80.6352 30.2285 84.7634 30.2285C88.8917 30.2285 95.2428 30.8637 95.2428 30.8637L96.1955 8.95215C96.1955 8.95215 91.3263 7.47021 84.7634 7.47021C78.2006 7.47021 73.543 8.95215 73.543 8.95215Z" fill="black" fill-opacity="0.4"/>
<path d="M74.284 30.8637L73.543 8.95215C73.543 8.95215 64.9689 11.0692 61.2641 19.6433C57.5593 28.2173 63.1695 33.4041 63.1695 33.4041C63.1695 33.4041 67.827 31.7105 72.0611 31.0754L74.284 30.8637Z" fill="black" fill-opacity="0.4"/>
<path d="M72.0611 31.0754C67.827 31.7105 63.1695 33.4041 63.1695 33.4041C63.1695 33.4041 65.2865 35.627 67.2977 37.109C69.3089 38.5909 73.2255 39.4377 73.2255 39.4377L72.0611 31.0754Z" fill="black" fill-opacity="0.4"/>
<path d="M106.887 33.4041C106.887 33.4041 101.171 31.4988 97.6774 31.0754L96.6189 39.4377C96.6189 39.4377 100.218 38.4851 102.441 37.109C104.664 35.7329 106.887 33.4041 106.887 33.4041Z" fill="black" fill-opacity="0.4"/>
<path d="M96.1955 8.95215L95.2428 30.8637L97.6774 31.0754C101.171 31.4988 106.887 33.4041 106.887 33.4041C106.887 33.4041 112.639 28.4291 108.474 19.6433C104.309 10.8575 96.1955 8.95215 96.1955 8.95215Z" fill="black" fill-opacity="0.4"/>
<path d="M63.1695 33.4041C63.1695 33.4041 67.827 31.7105 72.0611 31.0754M63.1695 33.4041C63.1695 33.4041 57.5593 28.2173 61.2641 19.6433C64.9689 11.0692 73.543 8.95215 73.543 8.95215M63.1695 33.4041C63.1695 33.4041 65.2865 35.627 67.2977 37.109C69.3089 38.5909 73.2255 39.4377 73.2255 39.4377M73.543 8.95215L74.284 30.8637M73.543 8.95215C73.543 8.95215 78.2006 7.47021 84.7634 7.47021C91.3263 7.47021 96.1955 8.95215 96.1955 8.95215M96.1955 8.95215L95.2428 30.8637M96.1955 8.95215C96.1955 8.95215 104.309 10.8575 108.474 19.6433C112.639 28.4291 106.887 33.4041 106.887 33.4041M74.284 30.8637L72.0611 31.0754M74.284 30.8637C74.284 30.8637 80.6352 30.2285 84.7634 30.2285C88.8917 30.2285 95.2428 30.8637 95.2428 30.8637M106.887 33.4041C106.887 33.4041 101.171 31.4988 97.6774 31.0754M106.887 33.4041C106.887 33.4041 104.664 35.7329 102.441 37.109C100.218 38.4851 96.6189 39.4377 96.6189 39.4377M72.0611 31.0754L73.2255 39.4377M73.2255 39.4377L78.3064 40.0728H91.3263L96.6189 39.4377M95.2428 30.8637L97.6774 31.0754M97.6774 31.0754L96.6189 39.4377" stroke="black" stroke-linecap="round" fill="none" />
<path d="M78.0947 293.273C45.7038 293.167 26.7561 288.192 26.7561 288.192M78.0947 261.729C43.7984 260.882 28.0264 257.494 28.0264 257.494M78.2005 231.561C42.2106 230.925 29.5083 227.856 29.5083 227.856M78.0947 201.075C51.6315 200.757 30.9902 198.217 30.9902 198.217M78.2005 169.213C52.0549 169.319 47.2915 168.366 47.2915 168.366M78.0947 138.304C51.9491 138.41 36.8121 136.399 36.8121 136.399M78.0947 105.807H39.2467M130.703 105.807H91.4321M133.032 136.293C133.032 136.293 124.67 137.881 91.4321 138.304M122.553 168.155C122.553 168.155 107.416 169.637 91.4321 169.213M138.748 198.005C138.748 198.005 125.305 200.546 91.4321 201.075M140.23 228.067C140.23 228.067 127.74 230.502 91.4321 231.561M142.03 257.494C142.03 257.494 129.433 260.882 91.4321 261.729M143.406 287.98C143.406 287.98 129.433 292.638 91.4321 293.484M167.117 169.848C167.117 169.848 158.013 175.353 139.807 173.765M163.73 144.232C163.73 144.232 157.484 148.572 135.89 149.313M158.86 117.134C158.86 117.134 152.086 122.532 133.35 124.014M152.192 90.0354C152.192 90.0354 145.735 94.0578 131.444 96.2808M30.461 173.871C12.3602 175.564 2.6217 169.637 2.6217 169.637M34.1658 149.207C13.8421 149.207 6.00899 143.914 6.00899 143.914M36.4946 124.014C19.664 122.426 11.0899 117.24 11.0899 117.24M38.3999 96.1749C22.4162 93.4227 17.5469 90.0354 17.5469 90.0354M70.685 72.1463C36.6004 72.1463 34.9068 72.8873 34.9068 72.8873M135.043 72.7814C135.043 72.7814 132.503 72.1463 99.2652 72.1463M97.6774 72.1463H91.3263M78.2005 72.1463H72.2728M126.469 186.891L132.609 185.832L125.623 148.89L119.06 149.525M50.7847 149.419L44.2218 148.89L37.4472 185.938L43.6926 186.997M80 299.2H84.6575H89.3151V41.7666H80V299.2Z" stroke="black" stroke-linecap="round" stroke-dasharray="1 2"/>
</svg>
