<svg width="211" height="302" viewBox="0 0 211 302" fill="white" xmlns="http://www.w3.org/2000/svg">
<path d="M98.3146 301H81.6971H70.2643L59.3633 300.867L47.9304 300.468L37.4282 299.936L27.3248 298.74L18.8166 297.012C18.8166 297.012 11.505 295.549 11.1061 292.359C10.7073 289.168 9.51086 276.007 9.51086 276.007C2.46505 269.094 3.66151 254.737 3.66151 254.737C3.66151 254.737 1.80031 252.743 1.13564 228.016C0.470976 203.289 2.46505 197.44 2.46505 197.44C2.46505 197.44 0.736823 196.243 1.13564 173.777C1.53446 151.31 2.46505 143.333 2.46505 143.333C2.46505 143.333 14.6955 128.178 17.6202 106.642C20.5449 85.1058 14.5969 60.1131 14.0308 57.1884C13.4648 54.2637 15.6261 53.0673 15.6261 53.0673C25.5966 47.085 61.7562 34.1899 61.7562 34.1899C61.7562 34.1899 61.7562 16.243 66.9408 7.33605C72.1255 -1.57091 137.665 -0.640312 143.514 7.33605C149.363 15.3124 148.433 34.1899 148.433 34.1899C148.433 34.1899 181.535 45.4897 195.228 53.0673C195.228 53.0673 197.621 53.9979 196.025 57.1884C194.43 60.379 190.708 82.1811 193.367 106.642C196.025 131.103 207.857 143.333 207.857 143.333C207.857 143.333 209.585 151.044 209.585 173.777C209.585 196.509 207.857 197.44 207.857 197.44C207.857 197.44 210.516 204.087 209.585 228.016C208.654 251.945 207.192 254.737 207.192 254.737C207.192 254.737 207.857 268.563 200.944 276.007C200.944 276.007 199.748 287.839 199.083 292.226C198.418 296.613 192.037 297.012 192.037 297.012L183.263 298.74L173.16 299.936L162.79 300.468L151.358 300.867L140.324 301H128.758H112.14H107.753H102.702H98.3146Z" />
<path d="M98.3146 301H81.6971M98.3146 301V281.724M98.3146 301H102.702M112.14 301H128.758M112.14 301V281.724M112.14 301H107.753M81.6971 301H70.2643M81.6971 301V281.724M9.51086 276.007C9.51086 276.007 10.7073 289.168 11.1061 292.359C11.505 295.549 18.8166 297.012 18.8166 297.012M9.51086 276.007C2.46505 269.094 3.66151 254.737 3.66151 254.737M9.51086 276.007L17.6202 277.868M98.3146 281.724H81.6971M98.3146 281.724V259.789M128.758 301H140.324M128.758 301V281.724M200.944 276.007C200.944 276.007 199.748 287.839 199.083 292.226C198.418 296.613 192.037 297.012 192.037 297.012M200.944 276.007C207.857 268.563 207.192 254.737 207.192 254.737M200.944 276.007L192.968 277.868M112.14 281.724H128.758M112.14 281.724V259.789M81.6971 281.724H70.2643M98.3146 259.789C98.3146 259.789 66.675 260.453 40.7517 258.459C14.8285 256.465 3.66151 254.737 3.66151 254.737M98.3146 259.789V200.365M3.66151 254.737C3.66151 254.737 1.80031 252.743 1.13564 228.016C0.470976 203.289 2.46505 197.44 2.46505 197.44M2.46505 197.44L27.9895 199.301M2.46505 197.44C2.46505 197.44 0.736823 196.243 1.13564 173.777C1.53446 151.31 2.46505 143.333 2.46505 143.333M98.3146 200.365L41.8152 199.833M98.3146 200.365V144.131M128.758 281.724H140.324M112.14 259.789C112.14 259.789 147.369 260.187 171.564 258.459C195.759 256.731 207.192 254.737 207.192 254.737M112.14 259.789V200.365M207.192 254.737C207.192 254.737 208.654 251.945 209.585 228.016C210.516 204.087 207.857 197.44 207.857 197.44M112.14 200.365L169.171 199.7M112.14 200.365V144.131M207.857 197.44L182.598 199.168M207.857 197.44C207.857 197.44 209.585 196.509 209.585 173.777C209.585 151.044 207.857 143.333 207.857 143.333M169.171 199.7L163.733 180.485C163.433 179.423 164.049 178.318 165.111 178.016L173.888 175.522C174.953 175.219 176.061 175.84 176.36 176.906L182.598 199.168M169.171 199.7L180.691 240.334C181.005 241.441 182.185 242.055 183.271 241.678L192.103 238.61C193.109 238.261 193.665 237.184 193.367 236.162L182.598 199.168M112.14 144.131L159.999 143.732L207.857 143.333M112.14 144.131V88.5622M41.8152 199.833L29.7838 240.36C29.4584 241.456 28.2825 242.056 27.204 241.678L18.4785 238.614C17.4754 238.262 16.9231 237.187 17.2212 236.167L27.9895 199.301M41.8152 199.833L47.2623 180.586C47.5594 179.537 46.9606 178.442 45.9163 178.127L36.9747 175.426C35.9077 175.104 34.783 175.716 34.4745 176.787L27.9895 199.301M98.3146 144.131L50.3898 143.732L2.46505 143.333M98.3146 144.131V88.5622M2.46505 143.333C2.46505 143.333 24.1342 130.039 22.8048 90.9551M2.46505 143.333C2.46505 143.333 14.6955 128.178 17.6202 106.642C20.5449 85.1058 14.5969 60.1131 14.0308 57.1884C13.4648 54.2637 15.6261 53.0673 15.6261 53.0673M207.857 143.333C207.857 143.333 186.188 129.375 187.916 90.9551M207.857 143.333C207.857 143.333 196.025 131.103 193.367 106.642C190.708 82.1811 194.43 60.379 196.025 57.1884C197.621 53.9979 195.228 53.0673 195.228 53.0673M112.14 88.5622C112.14 88.5622 129.688 87.6316 152.288 88.5622C174.888 89.4928 187.916 90.9551 187.916 90.9551M112.14 88.5622V58.119M98.3146 88.5622C98.3146 88.5622 83.1595 87.7646 59.895 88.5622C36.6306 89.3598 22.8048 90.9551 22.8048 90.9551M98.3146 88.5622V58.119M22.8048 90.9551C21.8743 70.2165 15.6261 53.0673 15.6261 53.0673M187.916 90.9551C188.847 65.5636 195.228 53.0673 195.228 53.0673M112.14 58.119C112.14 58.119 145.641 58.7837 148.433 34.1899M112.14 58.119L113.337 27.4099M98.3146 58.119C98.3146 58.119 65.6114 58.119 61.7562 34.1899M98.3146 58.119L97.1181 27.4099M61.7562 34.1899C61.7562 34.1899 25.5966 47.085 15.6261 53.0673M61.7562 34.1899C61.7562 34.1899 61.7562 16.243 66.9408 7.33605C72.1255 -1.57091 137.665 -0.640312 143.514 7.33605C149.363 15.3124 148.433 34.1899 148.433 34.1899M148.433 34.1899C148.433 34.1899 181.535 45.4897 195.228 53.0673M72.1255 10.2607C72.1255 10.2607 74.1196 27.4099 97.1181 27.4099M113.337 27.4099C135.405 26.6123 138.197 11.0584 138.197 11.0584M113.337 27.4099C113.337 27.4099 108.95 27.144 108.95 30.9993M97.1181 27.4099C97.1181 27.4099 101.372 27.277 101.505 30.9993M70.2643 301L59.3633 300.867M70.2643 301V281.724M140.324 301L151.358 300.867M140.324 301V281.724M59.3633 300.867L47.9304 300.468M59.3633 300.867C58.8315 297.411 59.3633 281.325 59.3633 281.325M151.358 300.867L162.79 300.468M151.358 300.867L151.623 281.458M162.79 300.468L173.16 299.936M162.79 300.468C162.923 287.839 162.923 281.059 162.923 281.059M47.9304 300.468L37.4282 299.936M47.9304 300.468C47.1328 290.099 47.6646 280.926 47.6646 280.926M173.16 299.936L183.263 298.74M173.16 299.936C173.426 288.902 173.426 280.261 173.426 280.261M183.263 298.74L192.037 297.012M183.263 298.74C183.662 291.029 183.662 279.065 183.662 279.065M192.037 297.012C192.702 288.238 192.968 277.868 192.968 277.868M18.8166 297.012L27.3248 298.74M18.8166 297.012C17.6202 288.238 17.6202 277.868 17.6202 277.868M27.3248 298.74L37.4282 299.936M27.3248 298.74L26.926 279.065M37.4282 299.936C36.7635 291.295 37.0294 280.128 37.0294 280.128M140.324 281.724L151.623 281.458M70.2643 281.724L59.3633 281.325M59.3633 281.325L47.6646 280.926M47.6646 280.926L37.0294 280.128M37.0294 280.128L26.926 279.065M26.926 279.065L17.6202 277.868M151.623 281.458L162.923 281.059M162.923 281.059L173.426 280.261M173.426 280.261L183.662 279.065M183.662 279.065L192.968 277.868M102.702 301H107.753M102.702 301C102.702 301 102.702 66.2283 102.702 58.119C102.702 50.0097 101.638 34.7216 101.505 30.9993M107.753 301C107.753 301 107.886 65.9624 107.753 58.119C107.62 50.2756 108.95 34.8545 108.95 30.9993M108.95 30.9993C108.95 30.9993 109.747 27.4099 105.227 27.4099C100.708 27.4099 101.505 30.9993 101.505 30.9993" stroke="black" stroke-linecap="round"/>
<path d="M101.451 30.4433C101.48 30.6183 101.498 30.8034 101.505 30.9991C101.505 30.9991 101.456 30.777 101.451 30.4433C100.937 27.2904 97.1181 27.4098 97.1181 27.4098C80.4588 27.4098 74.8205 18.4116 72.978 13.4511C72.978 13.4511 79.4371 8.93115 104.031 8.93115C128.625 8.93115 137.436 13.4511 137.436 13.4511C135.639 17.8455 129.95 26.8093 113.337 27.4098C113.337 27.4098 109.501 27.1773 109.003 30.2994C109.014 30.7116 108.95 30.9991 108.95 30.9991C108.95 30.7489 108.968 30.5161 109.003 30.2994C108.975 29.2549 108.468 27.4098 105.227 27.4098C101.832 27.4098 101.437 29.4355 101.451 30.4433Z" fill="black" fill-opacity="0.4"/>
<path d="M107.753 301H102.702V297.677L102.702 294.353L102.702 291.03L102.702 287.706L102.702 284.383L102.702 281.059L102.702 277.736L102.702 274.412L102.702 271.089L102.702 267.765L102.702 264.442L102.702 261.118L102.702 257.795L102.702 254.471L102.702 251.148L102.702 247.824L102.702 244.501L102.702 241.177L102.702 237.854L102.702 234.53L102.702 231.206L102.702 227.883L102.702 224.56L102.702 221.236L102.702 217.913L102.702 214.589L102.702 211.266L102.702 207.942L102.702 204.619L102.702 201.295L102.702 197.972L102.702 194.648L102.702 191.325L102.702 188.001L102.702 184.678L102.702 181.354L102.702 178.03L102.702 174.707L102.702 171.383L102.702 168.06L102.702 164.737L102.702 161.413L102.702 158.09L102.702 154.766L102.702 151.443L102.702 148.119L102.702 144.796L102.702 141.472L102.702 138.149L102.702 134.825L102.702 131.502L102.702 128.178L102.702 124.854L102.702 121.531L102.702 118.207L102.702 114.884L102.702 111.561L102.702 108.237L102.702 104.914L102.702 101.59L102.702 98.2665L102.702 94.9429L102.702 91.6195L102.702 88.2962L102.702 84.9728L102.702 81.6494L102.702 78.3257L102.702 75.0021L102.702 71.6787L102.702 68.3553L102.702 65.0322L102.702 61.7089L102.702 58.1192C102.702 57.1105 102.685 55.9907 102.656 54.7959C102.63 53.7385 102.595 52.6224 102.552 51.4725C102.512 50.3878 102.465 49.2731 102.414 48.1494C102.363 47.0437 102.309 45.9292 102.253 44.826C102.191 43.6067 102.126 42.4012 102.062 41.2364C101.999 40.0796 101.936 38.963 101.876 37.913C101.807 36.7034 101.743 35.5822 101.687 34.5899C101.609 33.186 101.547 32.04 101.516 31.2666C101.512 31.1719 101.508 31.0828 101.505 30.9995C101.505 30.9995 100.708 27.4102 105.228 27.4102C109.747 27.4102 108.95 30.9995 108.95 30.9995C108.95 31.0832 108.949 31.1722 108.948 31.2666C108.938 32.0498 108.887 33.1949 108.81 34.5899C108.756 35.5842 108.689 36.7054 108.615 37.913C108.551 38.9642 108.482 40.0809 108.412 41.2364C108.341 42.4026 108.269 43.6083 108.199 44.826C108.136 45.9308 108.075 47.0454 108.02 48.1494C107.963 49.2754 107.912 50.3903 107.87 51.4725C107.825 52.6263 107.79 53.7429 107.768 54.7957C107.743 56 107.736 57.121 107.753 58.1192L107.754 61.7089L107.754 65.0322L107.754 68.3553L107.754 71.6787L107.754 75.0021L107.754 78.3257L107.754 81.6494L107.754 84.9728L107.754 88.2962L107.754 91.6195L107.754 94.9429L107.754 98.2665L107.754 101.59L107.754 104.914L107.754 108.237L107.754 111.561L107.754 114.884L107.754 118.207L107.754 121.531L107.754 124.854L107.754 128.178L107.754 131.502L107.754 134.825L107.754 138.149L107.754 141.472L107.753 144.796L107.753 148.119L107.753 151.443L107.754 154.766L107.753 158.09L107.753 161.413L107.753 164.737L107.754 168.06L107.753 171.383L107.753 174.707L107.753 178.03L107.754 181.354L107.753 184.678L107.753 188.001L107.753 191.325L107.753 194.648L107.753 197.972L107.753 201.295L107.753 204.619L107.753 207.942L107.753 211.266L107.753 214.589L107.753 217.913L107.753 221.236L107.753 224.56L107.753 227.883L107.753 231.206L107.753 234.53L107.753 237.854L107.753 241.177L107.753 244.501L107.753 247.824L107.753 251.148L107.753 254.471L107.753 257.795L107.753 261.118L107.753 264.442L107.753 267.765L107.753 271.089L107.753 274.412L107.753 277.736L107.753 281.059L107.753 284.383L107.753 287.706L107.753 291.03L107.753 294.353L107.753 297.677L107.753 301Z" fill="#E7E8D0"/>
<path d="M102.702 58.1192L102.702 61.7089M102.702 58.1192H107.753M102.702 58.1192C102.702 57.1105 102.685 55.9907 102.656 54.7959M107.753 58.1192L107.754 61.7089M107.753 58.1192C107.736 57.121 107.743 56 107.768 54.7957M102.702 297.677V301H107.753L107.753 297.677M102.702 297.677H107.753M102.702 297.677L102.702 294.353M107.753 297.677L107.753 294.353M102.702 294.353H107.753M102.702 294.353L102.702 291.03M107.753 294.353L107.753 291.03M102.702 291.03H107.753M102.702 291.03L102.702 287.706M107.753 291.03L107.753 287.706M102.702 287.706H107.753M102.702 287.706L102.702 284.383M107.753 287.706L107.753 284.383M102.702 284.383H107.753M102.702 284.383L102.702 281.059M107.753 284.383L107.753 281.059M102.702 281.059H107.753M102.702 281.059L102.702 277.736M107.753 281.059L107.753 277.736M102.702 277.736H107.753M102.702 277.736L102.702 274.412M107.753 277.736L107.753 274.412M102.702 274.412H107.753M102.702 274.412L102.702 271.089M107.753 274.412L107.753 271.089M102.702 271.089H107.753M102.702 271.089L102.702 267.765M107.753 271.089L107.753 267.765M102.702 267.765H107.753M102.702 267.765L102.702 264.442M107.753 267.765L107.753 264.442M102.702 264.442H107.753M102.702 264.442L102.702 261.118M107.753 264.442L107.753 261.118M102.702 261.118H107.753M102.702 261.118L102.702 257.795M107.753 261.118L107.753 257.795M102.702 257.795H107.753M102.702 257.795L102.702 254.471M107.753 257.795L107.753 254.471M102.702 254.471H107.753M102.702 254.471L102.702 251.148M107.753 254.471L107.753 251.148M102.702 251.148H107.753M102.702 251.148L102.702 247.824M107.753 251.148L107.753 247.824M102.702 247.824H107.753M102.702 247.824L102.702 244.501M107.753 247.824L107.753 244.501M102.702 244.501H107.753M102.702 244.501L102.702 241.177M107.753 244.501L107.753 241.177M102.702 241.177H107.753M102.702 241.177L102.702 237.854M107.753 241.177L107.753 237.854M102.702 237.854H107.753M102.702 237.854L102.702 234.53M107.753 237.854L107.753 234.53M102.702 234.53H107.753M102.702 234.53L102.702 231.206M107.753 234.53L107.753 231.206M102.702 231.206H107.753M102.702 231.206L102.702 227.883M107.753 231.206L107.753 227.883M102.702 227.883H107.753M102.702 227.883L102.702 224.56M107.753 227.883L107.753 224.56M102.702 224.56H107.753M102.702 224.56L102.702 221.236M107.753 224.56L107.753 221.236M102.702 221.236H107.753M102.702 221.236L102.702 217.913M107.753 221.236L107.753 217.913M102.702 217.913H107.753M102.702 217.913L102.702 214.589M107.753 217.913L107.753 214.589M102.702 214.589H107.753M102.702 214.589L102.702 211.266M107.753 214.589L107.753 211.266M102.702 211.266H107.753M102.702 211.266L102.702 207.942M107.753 211.266L107.753 207.942M102.702 207.942H107.753M102.702 207.942L102.702 204.619M107.753 207.942L107.753 204.619M102.702 204.619H107.753M102.702 204.619L102.702 201.295M107.753 204.619L107.753 201.295M102.702 201.295H107.753M102.702 201.295L102.702 197.972M107.753 201.295L107.753 197.972M102.702 197.972H107.753M102.702 197.972L102.702 194.648M107.753 197.972L107.753 194.648M102.702 194.648H107.753M102.702 194.648L102.702 191.325M107.753 194.648L107.753 191.325M102.702 191.325H107.753M102.702 191.325L102.702 188.001M107.753 191.325L107.753 188.001M102.702 188.001H107.753M102.702 188.001L102.702 184.678M107.753 188.001L107.753 184.678M102.702 184.678H107.753M102.702 184.678L102.702 181.354M107.753 184.678L107.754 181.354M102.702 181.354H107.754M102.702 181.354L102.702 178.03M107.754 181.354L107.753 178.03M102.702 178.03H107.753M102.702 178.03L102.702 174.707M107.753 178.03L107.753 174.707M102.702 174.707H107.753M102.702 174.707L102.702 171.383M107.753 174.707L107.753 171.383M102.702 171.383H107.753M102.702 171.383L102.702 168.06M107.753 171.383L107.754 168.06M102.702 168.06H107.754M102.702 168.06L102.702 164.737M107.754 168.06L107.753 164.737M102.702 164.737H107.753M102.702 164.737L102.702 161.413M107.753 164.737L107.753 161.413M102.702 161.413H107.753M102.702 161.413L102.702 158.09M107.753 161.413L107.753 158.09M102.702 158.09H107.753M102.702 158.09L102.702 154.766M107.753 158.09L107.754 154.766M102.702 154.766H107.754M102.702 154.766L102.702 151.443M107.754 154.766L107.753 151.443M102.702 151.443H107.753M102.702 151.443L102.702 148.119M107.753 151.443L107.753 148.119M102.702 148.119H107.753M102.702 148.119L102.702 144.796M107.753 148.119L107.753 144.796M102.702 144.796H107.753M102.702 144.796L102.702 141.472M107.753 144.796L107.754 141.472M102.702 141.472H107.754M102.702 141.472L102.702 138.149M107.754 141.472L107.754 138.149M102.702 138.149H107.754M102.702 138.149L102.702 134.825M107.754 138.149L107.754 134.825M102.702 134.825H107.754M102.702 134.825L102.702 131.502M107.754 134.825L107.754 131.502M102.702 131.502H107.754M102.702 131.502L102.702 128.178M107.754 131.502L107.754 128.178M102.702 128.178H107.754M102.702 128.178L102.702 124.854M107.754 128.178L107.754 124.854M102.702 124.854H107.754M102.702 124.854L102.702 121.531M107.754 124.854L107.754 121.531M102.702 121.531H107.754M102.702 121.531L102.702 118.207M107.754 121.531L107.754 118.207M102.702 118.207H107.754M102.702 118.207L102.702 114.884M107.754 118.207L107.754 114.884M102.702 114.884H107.754M102.702 114.884L102.702 111.561M107.754 114.884L107.754 111.561M102.702 111.561H107.754M102.702 111.561L102.702 108.237M107.754 111.561L107.754 108.237M102.702 108.237H107.754M102.702 108.237L102.702 104.914M107.754 108.237L107.754 104.914M102.702 104.914H107.754M102.702 104.914L102.702 101.59M107.754 104.914L107.754 101.59M102.702 101.59H107.754M102.702 101.59L102.702 98.2665M107.754 101.59L107.754 98.2665M102.702 98.2665H107.754M102.702 98.2665L102.702 94.9429M107.754 98.2665L107.754 94.9429M102.702 94.9429H107.754M102.702 94.9429L102.702 91.6195M107.754 94.9429L107.754 91.6195M102.702 91.6195H107.754M102.702 91.6195L102.702 88.2962M107.754 91.6195L107.754 88.2962M102.702 88.2962H107.754M102.702 88.2962L102.702 84.9728M107.754 88.2962L107.754 84.9728M102.702 84.9728H107.754M102.702 84.9728L102.702 81.6494M107.754 84.9728L107.754 81.6494M102.702 81.6494H107.754M102.702 81.6494L102.702 78.3257M107.754 81.6494L107.754 78.3257M102.702 78.3257H107.754M102.702 78.3257L102.702 75.0021M107.754 78.3257L107.754 75.0021M102.702 75.0021H107.754M102.702 75.0021L102.702 71.6787M107.754 75.0021L107.754 71.6787M102.702 71.6787H107.754M102.702 71.6787L102.702 68.3553M107.754 71.6787L107.754 68.3553M102.702 68.3553H107.754M102.702 68.3553L102.702 65.0322M107.754 68.3553L107.754 65.0322M102.702 65.0322H107.754M102.702 65.0322L102.702 61.7089M107.754 65.0322L107.754 61.7089M102.702 61.7089H107.754M102.656 54.7959L107.768 54.7957M102.656 54.7959C102.63 53.7385 102.595 52.6224 102.552 51.4725M107.768 54.7957C107.79 53.7429 107.825 52.6263 107.87 51.4725M102.552 51.4725H107.87M102.552 51.4725C102.512 50.3878 102.465 49.2731 102.414 48.1494M107.87 51.4725C107.912 50.3903 107.963 49.2754 108.02 48.1494M102.414 48.1494H108.02M102.414 48.1494C102.363 47.0437 102.309 45.9292 102.253 44.826M108.02 48.1494C108.075 47.0454 108.136 45.9308 108.199 44.826M102.253 44.826H108.199M102.253 44.826C102.191 43.6067 102.126 42.4012 102.062 41.2364M108.199 44.826C108.269 43.6083 108.341 42.4026 108.412 41.2364M102.062 41.2364H108.412M102.062 41.2364C101.999 40.0796 101.936 38.963 101.876 37.913M108.412 41.2364C108.482 40.0809 108.551 38.9642 108.615 37.913M101.876 37.913H108.615M101.876 37.913C101.807 36.7034 101.743 35.5822 101.687 34.5899M108.615 37.913C108.689 36.7054 108.756 35.5842 108.81 34.5899M101.687 34.5899H108.81M101.687 34.5899C101.609 33.186 101.547 32.04 101.516 31.2666M108.81 34.5899C108.887 33.1949 108.938 32.0498 108.948 31.2666M101.516 31.2666H108.948M101.516 31.2666C101.512 31.1719 101.508 31.0828 101.505 30.9995C101.505 30.9995 100.708 27.4102 105.228 27.4102C109.747 27.4102 108.95 30.9995 108.95 30.9995C108.95 31.0832 108.949 31.1722 108.948 31.2666" stroke="black" stroke-linecap="round" fill="none" />
<path fill-rule="evenodd" clip-rule="evenodd" d="M103.349 45.7555H107.475C108.416 45.7555 109.208 45.0532 109.265 44.1143C109.34 42.8729 109.372 41.1717 109.123 39.9061C108.94 38.9721 108.521 38.2855 108.116 37.6205C107.619 36.8049 107.141 36.0218 107.141 34.8544V30.7333V27.5428C107.141 27.1022 106.784 26.7451 106.344 26.7451H104.35C103.909 26.7451 103.552 27.1022 103.552 27.5428V30.7333V34.8544C103.552 36.1165 103.091 36.8998 102.618 37.7054C102.243 38.3424 101.861 38.9934 101.691 39.9061C101.456 41.17 101.485 42.8637 101.556 44.1033C101.61 45.0468 102.404 45.7555 103.349 45.7555ZM105.35 43.4311C104.357 43.433 103.544 42.627 103.552 41.6344C103.56 40.6493 104.365 39.8635 105.35 39.8654C106.333 39.8673 107.134 40.6512 107.141 41.6344C107.149 42.6251 106.341 43.4292 105.35 43.4311Z" fill="#CACCA0"/>
<path d="M107.141 30.7333C107.141 30.7333 107.141 33.2592 107.141 34.8544M107.141 30.7333H103.552M107.141 30.7333V27.5428M107.141 30.7333V34.8544M103.552 34.8544C103.552 33.245 103.552 30.7333 103.552 30.7333M103.552 34.8544V30.7333M103.552 34.8544C103.552 36.1165 103.091 36.8998 102.618 37.7054C102.243 38.3424 101.861 38.9934 101.691 39.9062C101.456 41.17 101.485 42.8637 101.556 44.1033M107.141 34.8544C107.141 36.0218 107.619 36.8049 108.116 37.6205C108.521 38.2855 108.94 38.9721 109.123 39.9062C109.372 41.1717 109.34 42.8729 109.265 44.1143M103.552 30.7333V27.5428M107.475 45.7555H103.349M107.475 45.7555C108.416 45.7555 109.208 45.0532 109.265 44.1143M107.475 45.7555V45.7555C108.416 45.7555 109.208 45.0531 109.265 44.1143V44.1143M103.349 45.7555C102.404 45.7555 101.61 45.0468 101.556 44.1033M103.349 45.7555V45.7555C102.404 45.7555 101.61 45.0467 101.556 44.1033V44.1033M103.552 27.5428C103.552 27.1022 103.909 26.7451 104.35 26.7451M103.552 27.5428V27.5428C103.552 27.1022 103.909 26.7451 104.35 26.7451V26.7451M104.35 26.7451H106.344M106.344 26.7451C106.784 26.7451 107.141 27.1022 107.141 27.5428M106.344 26.7451V26.7451C106.784 26.7451 107.141 27.1022 107.141 27.5428V27.5428M107.141 41.6344C107.149 42.6251 106.341 43.4292 105.35 43.4311C104.357 43.433 103.544 42.627 103.552 41.6344C103.56 40.6493 104.365 39.8635 105.35 39.8654C106.333 39.8673 107.134 40.6512 107.141 41.6344Z" stroke="black" stroke-linecap="round"/>
</svg>
