<svg width="266" height="302" viewBox="0 0 266 302" fill="white" xmlns="http://www.w3.org/2000/svg">
<path d="M62.7796 276.186C59.7026 272.306 58.231 259.864 58.231 259.864L56.0906 256.654C56.0906 256.654 54.2177 276.186 47.6625 281.002L47.0429 296.119C47.0112 296.891 46.674 297.62 46.0052 298.008C45.2923 298.422 44.155 298.967 42.4718 299.475C40.1184 300.185 36.6975 300.824 31.8764 300.935C27.2132 301.042 23.8385 300.677 21.4684 300.201C19.7616 299.858 18.5758 299.457 17.8049 299.134C17.024 298.806 16.5778 298.046 16.4943 297.204L15.1539 283.677C15.1539 283.677 4.31777 280.065 2.31109 260.132C0.304403 240.199 2.71231 226.955 2.71231 226.955C2.71231 226.955 0.0367925 215.985 1.37459 199.128C2.71239 182.272 6.59198 169.429 6.59198 169.429C6.59198 169.429 3.7826 166.62 9.26758 142.807C14.7526 118.994 19.3011 116.185 19.3011 116.185C19.3011 116.185 16.4917 113.643 22.1105 96.9203C27.7292 80.1978 39.7694 64.6793 39.7694 64.6793C52.4785 46.7528 89.2681 36.5855 89.2681 36.5855C86.86 14.378 90.8734 8.62547 90.8734 8.62547C90.8734 8.62547 93.4153 1 133.014 1C172.613 1 174.887 8.62547 174.887 8.62547C174.887 8.62547 179.57 13.0402 176.894 36.7193C176.894 36.7193 208.6 44.211 226.259 64.6793C226.259 64.6793 236.48 74.9804 243.249 94.2447C250.017 113.509 246.727 116.051 246.727 116.051C246.727 116.051 253.818 124.345 257.563 143.074C261.309 161.804 259.57 169.83 259.57 169.83C259.57 169.83 263.717 179.73 264.788 199.128C265.858 218.526 263.985 226.955 263.985 226.955C263.985 226.955 265.858 239.797 263.985 260.132C262.112 280.467 250.874 283.677 250.874 283.677L249.89 297.337C249.835 298.101 249.476 298.809 248.786 299.143C248.062 299.493 246.901 299.932 245.149 300.295C242.738 300.796 239.207 301.152 234.152 300.935C229.675 300.742 226.446 300.221 224.145 299.632C221.921 299.062 220.566 298.43 219.791 297.971C219.178 297.607 218.888 296.931 218.863 296.218L218.366 281.537C210.473 275.115 210.473 256.654 210.473 256.654L208.734 259.864C208.734 259.864 205.924 274.447 203.516 276.186C202.958 276.589 200.841 277.523 198.433 278.128L187.596 280.333L174.352 282.206L162.58 283.008L151.208 283.142L139.436 283.008C139.436 283.008 136.359 283.811 135.556 283.008H130.071C129.67 283.811 126.459 283.008 126.459 283.008L114.553 283.183L103.449 282.875L91.6761 282.34L77.8968 280.734L67.4619 278.192L62.7796 276.186Z" />
<path d="M126.459 283.008L126.593 269.764M126.459 283.008C126.459 283.008 129.67 283.811 130.071 283.008M126.459 283.008L114.553 283.183M139.436 283.008L139.436 269.898M139.436 283.008C139.436 283.008 136.359 283.811 135.556 283.008M139.436 283.008L151.208 283.142M89.2681 36.5855C89.2681 36.5855 52.4785 46.7528 39.7694 64.6793M89.2681 36.5855C89.2681 36.5855 94.3517 55.8498 126.459 57.589M89.2681 36.5855C86.86 14.378 90.8734 8.62547 90.8734 8.62547M58.231 259.864C58.231 259.864 59.7026 272.306 62.7796 276.186L67.4619 278.192M58.231 259.864L56.0906 256.654M58.231 259.864L67.5957 264.162M126.593 269.764L126.459 210.633M126.593 269.764L114.017 269.63M126.459 29.8965V57.589M208.734 259.864C208.734 259.864 205.924 274.446 203.516 276.186C202.958 276.589 200.841 277.523 198.433 278.128M208.734 259.864L210.473 256.654M208.734 259.864C208.734 259.864 206.182 262.021 198.433 264.27M139.436 269.898L139.436 210.633M139.436 269.898L152.011 269.764M176.894 36.7193C176.894 36.7193 208.6 44.211 226.259 64.6793M176.894 36.7193C176.894 36.7193 169.937 55.9836 139.436 57.589M176.894 36.7193C179.57 13.0402 174.887 8.62547 174.887 8.62547M139.436 29.8965V57.589M126.459 152.172V94.2447M126.459 152.172V210.633M126.459 152.172L54.7528 151.503M139.436 152.172V94.2447M139.436 152.172V210.633M139.436 152.172L211.142 151.503M139.436 94.2447C139.436 94.2447 192.145 92.7731 213.683 100.532M139.436 94.2447V57.589M126.459 94.2447C126.459 94.2447 78.0305 92.238 52.4785 100.532M126.459 94.2447V57.589M126.459 210.633C126.459 210.633 96.0909 210.633 71.2077 209.429M139.436 210.633C139.436 210.633 172.078 210.633 195.222 209.429M53.6825 205.416C53.6825 205.416 50.8731 214.914 50.8731 228.961M53.6825 205.416C53.6825 205.416 50.8731 200.734 50.8731 180.132M53.6825 205.416L61.0404 207.155M52.4785 100.532L51.9434 129.028M52.4785 100.532C49.1341 85.8166 39.7694 64.6793 39.7694 64.6793M54.7528 151.503C54.7528 151.503 50.8731 162.74 50.8731 180.132M54.7528 151.503C54.7528 151.503 51.8097 144.814 51.9434 129.028M213.683 100.532L214.219 128.894M213.683 100.532C219.302 79.3951 226.259 64.6793 226.259 64.6793M211.142 151.503C211.142 151.503 215.021 158.861 215.021 180.132M211.142 151.503C211.142 151.503 214.085 142.539 214.219 128.894M212.078 205.416C215.958 214.513 215.021 228.961 215.021 228.961M212.078 205.416C212.078 205.416 216.092 199.262 215.021 180.132M212.078 205.416L205.255 207.155M50.8731 228.961C50.8731 228.961 50.8731 248.895 56.0906 256.654M50.8731 228.961C50.8731 228.961 45.3882 231.369 28.7995 231.102C12.2107 230.834 2.71231 226.955 2.71231 226.955M56.0906 256.654C56.0906 256.654 54.2177 276.186 47.6625 281.002M215.021 228.961C215.021 228.961 215.021 247.423 210.473 256.654M215.021 228.961C215.021 228.961 227.998 231.771 239.904 231.102C251.811 230.433 263.985 226.955 263.985 226.955M210.473 256.654C210.473 256.654 210.473 275.115 218.366 281.537M50.8731 180.132C17.1606 179.061 6.59198 169.429 6.59198 169.429M215.021 180.132C243.784 179.463 259.57 169.83 259.57 169.83M51.9434 129.028C33.6156 126.352 19.3011 116.185 19.3011 116.185M214.219 128.894C236.828 124.613 246.727 116.051 246.727 116.051M39.7694 64.6793C39.7694 64.6793 27.7292 80.1978 22.1105 96.9203C16.4917 113.643 19.3011 116.185 19.3011 116.185M226.259 64.6793C226.259 64.6793 236.48 74.9804 243.249 94.2447C250.017 113.509 246.727 116.051 246.727 116.051M19.3011 116.185C19.3011 116.185 14.7526 118.994 9.26758 142.807C3.7826 166.62 6.59198 169.429 6.59198 169.429M47.6625 281.002L47.0429 296.119C47.0112 296.891 46.674 297.62 46.0052 298.008C45.2923 298.422 44.155 298.967 42.4718 299.475M47.6625 281.002C47.6625 281.002 45.8537 281.739 42.8732 282.559M6.59198 169.429C6.59198 169.429 2.71239 182.272 1.37459 199.128C0.0367925 215.985 2.71231 226.955 2.71231 226.955M2.71231 226.955C2.71231 226.955 0.304403 240.199 2.31109 260.132C4.31777 280.065 15.1539 283.677 15.1539 283.677M15.1539 283.677L16.4943 297.204C16.5778 298.046 17.024 298.806 17.8049 299.134C18.5758 299.457 19.7616 299.858 21.4684 300.201M15.1539 283.677C15.1539 283.677 16.9993 284.129 20.1306 284.454M246.727 116.051C246.727 116.051 253.818 124.345 257.563 143.074C261.309 161.804 259.57 169.83 259.57 169.83M259.57 169.83C259.57 169.83 263.717 179.73 264.788 199.128C265.858 218.526 263.985 226.955 263.985 226.955M263.985 226.955C263.985 226.955 265.858 239.797 263.985 260.132C262.112 280.467 250.874 283.677 250.874 283.677M218.366 281.537L218.863 296.218C218.888 296.931 219.178 297.607 219.791 297.971C220.566 298.43 221.921 299.062 224.145 299.632M218.366 281.537C218.366 281.537 219.829 282.36 223.476 283.177M250.874 283.677L249.89 297.337C249.835 298.101 249.476 298.809 248.786 299.143C248.062 299.493 246.901 299.932 245.149 300.295M250.874 283.677C250.874 283.677 249.6 284.205 246.219 284.529M61.0404 207.155C64.5188 188.426 68.7997 173.576 68.7997 173.576L78.0305 175.717L71.2077 209.429M61.0404 207.155L56.0906 237.657L65.9903 239.664C65.9903 239.664 67.3281 226.286 71.2077 209.429M205.255 207.155L209.938 237.657L200.172 239.664C200.172 239.664 198.433 226.286 195.222 209.429M205.255 207.155C201.643 187.088 196.961 173.576 196.961 173.576L187.864 175.717C187.864 175.717 190.508 184.68 195.222 209.429M174.887 8.62547C174.887 8.62547 172.613 1 133.014 1C93.4153 1 90.8734 8.62547 90.8734 8.62547M174.887 8.62547C174.227 20.2925 164.108 24.2723 154.687 25.4436M135.556 283.008V26.8196C135.556 26.8196 135.957 25.0804 138.499 25.348C138.972 25.3977 140.486 25.5864 142.646 25.7236M135.556 283.008H130.071M90.8734 8.62547C92.7909 20.3518 102.921 24.3939 112.03 25.6155M130.071 283.008V26.8196C130.071 26.8196 129.67 25.348 127.262 25.6155C126.787 25.6683 125.219 25.8668 122.981 25.9883M234.821 284.614L234.152 300.935M234.821 284.614C230.653 284.385 227.41 283.952 224.948 283.482M234.821 284.614C235.102 284.629 235.378 284.643 235.65 284.657M234.152 300.935C239.207 301.152 242.738 300.796 245.149 300.295M234.152 300.935C229.675 300.742 226.446 300.221 224.145 299.632M31.8764 300.935C36.6975 300.824 40.1184 300.185 42.4718 299.475M31.8764 300.935C27.2132 301.042 23.8385 300.677 21.4684 300.201M31.8764 300.935L31.0737 284.614M31.0737 284.614C30.8582 284.629 30.6441 284.643 30.4316 284.656M31.0737 284.614C35.2802 284.313 39.0548 283.554 41.9367 282.809M151.208 283.142L162.58 283.008M151.208 283.142C152.011 274.848 152.011 269.764 152.011 269.764M162.58 283.008L174.352 282.206M162.58 283.008C162.981 276.721 162.981 269.63 162.981 269.63M174.352 282.206L187.596 280.333M174.352 282.206L174.754 268.694M187.596 280.333L198.433 278.128M187.596 280.333L188.265 266.687M198.433 278.128V264.27M198.433 264.27L188.265 266.687M188.265 266.687L174.754 268.694M174.754 268.694L162.981 269.63M162.981 269.63L152.011 269.764M114.553 283.183C114.017 280.333 114.017 269.63 114.017 269.63M114.553 283.183L103.449 282.875M114.017 269.63L102.914 269.095M102.914 269.095L91.6761 268.293M102.914 269.095C102.914 269.095 102.512 276.186 103.449 282.875M91.6761 268.293L77.8968 266.269M91.6761 268.293C91.6761 268.293 91.2748 274.313 91.6761 282.34M77.8968 266.269L67.5957 264.162M77.8968 266.269V280.734M67.5957 264.162L67.4619 278.192M91.6761 282.34L103.449 282.875M91.6761 282.34L77.8968 280.734M77.8968 280.734L67.4619 278.192M122.981 25.9883C120.127 26.1431 116.185 26.1728 112.03 25.6155M122.981 25.9883C118.566 20.3981 114.82 11.4348 114.82 11.4348M112.03 25.6155C105.188 20.6657 102.512 13.3078 102.512 13.3078M142.646 25.7236C145.729 25.9194 150.126 26.0105 154.687 25.4436M142.646 25.7236C146.794 20.5319 150.138 13.4415 150.138 13.4415M154.687 25.4436C161.509 19.0603 164.051 12.9064 164.051 12.9064M42.8732 282.559C42.5727 282.641 42.2603 282.725 41.9367 282.809M42.8732 282.559L42.4718 299.475M21.4684 300.201L20.1306 284.454M20.1306 284.454C20.5535 284.497 20.9999 284.539 21.4684 284.577M21.4684 284.577C23.9181 284.774 26.9715 284.869 30.4316 284.656M21.4684 284.577C14.7793 280.734 13.8429 272.574 13.8429 272.574M30.4316 284.656C28.8263 280.333 28.5587 275.784 28.5587 275.784M41.9367 282.809C45.6825 276.186 45.9501 270.433 45.9501 270.433M245.149 300.295L246.219 284.529M246.219 284.529C245.963 284.554 245.696 284.577 245.416 284.599M223.476 283.177L224.145 299.632M223.476 283.177C223.932 283.279 224.422 283.381 224.948 283.482M245.416 284.599C243.087 284.781 239.901 284.861 235.65 284.657M245.416 284.599C253.978 281.135 254.513 273.911 254.513 273.911M224.948 283.482C219.195 279.129 218.901 272.975 218.901 272.975M235.65 284.657C237.657 279.396 237.256 275.383 237.256 275.383" stroke="black" stroke-linecap="round"/>
<path d="M112.03 25.6155C116.185 26.1728 120.127 26.1431 122.981 25.9883C113.215 24.144 102.512 13.3078 102.512 13.3078C102.512 13.3078 105.188 20.6657 112.03 25.6155Z" fill="black" fill-opacity="0.5"/>
<path d="M122.981 25.9883C125.219 25.8668 126.787 25.6683 127.262 25.6155C121.242 20.5319 114.82 11.4348 114.82 11.4348C114.82 11.4348 118.566 20.3981 122.981 25.9883Z" fill="black" fill-opacity="0.5"/>
<path d="M138.499 25.348C138.972 25.3977 140.486 25.5864 142.646 25.7236C146.794 20.5319 150.138 13.4415 150.138 13.4415C150.138 13.4415 145.188 19.5954 138.499 25.348Z" fill="black" fill-opacity="0.5"/>
<path d="M142.646 25.7236C145.729 25.9194 150.126 26.0105 154.687 25.4436C161.509 19.0603 164.051 12.9064 164.051 12.9064C164.051 12.9064 154.687 21.8697 142.646 25.7236Z" fill="black" fill-opacity="0.5"/>
<path d="M90.8734 8.62547C90.8734 8.62547 93.9504 21.6021 112.03 25.6155C102.921 24.3939 92.7909 20.3518 90.8734 8.62547Z" fill="black" fill-opacity="0.5"/>
<path d="M174.862 9.00742C174.005 20.3797 164.005 24.2852 154.687 25.4436C172.713 20.8218 174.653 11.0562 174.862 9.00742Z" fill="black" fill-opacity="0.5"/>
<path d="M135.556 283.008H130.071V279.798V276.587V273.376V270.165V266.955V263.744V260.533V257.323V254.112V250.901V247.69V244.48V241.269V238.058V234.848V231.637V228.426V225.215V222.005V218.794V215.583V212.372V209.162V205.951V202.74V199.53V196.319V193.108V189.897V186.687V183.476V180.265V177.055V173.844V170.633V167.422V164.212V161.001V157.79V154.579V151.369V148.158V144.947V141.737V138.526V135.315V132.104V128.894V125.683V122.472V119.262V116.051V112.84V109.629V106.419V103.208V99.9972V96.7865V93.5758V90.365V87.1543V83.9436V80.7329V77.5221V74.3114V71.1007V67.89V64.6793V61.4685V58.2578V55.0471V51.8364V48.6256V45.4149V43.9433C129.635 43.9433 129.288 43.5773 129.312 43.1418L130.071 29.0938H135.556L136.315 43.1418C136.339 43.5773 135.992 43.9433 135.556 43.9433V45.4149V48.6256V51.8364V55.0471V58.2578V61.4685V64.6793V67.89V71.1007V74.3114V77.5221V80.7329V83.9436V87.1543V90.365V93.5758V96.7865V99.9972V103.208V106.419V109.629V112.84V116.051V119.262V122.472V125.683V128.894V132.104V135.315V138.526V141.737V144.947V148.158V151.369V154.579V157.79V161.001V164.212V167.422V170.633V173.844V177.055V180.265V183.476V186.687V189.897V193.108V196.319V199.53V202.74V205.951V209.162V212.372V215.583V218.794V222.005V225.215V228.426V231.637V234.848V238.058V241.269V244.48V247.69V250.901V254.112V257.323V260.533V263.744V266.955V270.165V273.376V276.587V279.798V283.008Z" fill="#CCCCCC"/>
<path d="M130.071 279.798V283.008H135.556V279.798M130.071 279.798V276.587M130.071 279.798H135.556M135.556 279.798V276.587M130.071 276.587V273.376M130.071 276.587H135.556M135.556 276.587V273.376M130.071 273.376V270.165M130.071 273.376H135.556M135.556 273.376V270.165M130.071 270.165V266.955M130.071 270.165H135.556M135.556 270.165V266.955M130.071 266.955H135.556M130.071 266.955V263.744M135.556 266.955V263.744M130.071 263.744V260.533M130.071 263.744H135.556M135.556 263.744V260.533M130.071 260.533V257.323M130.071 260.533H135.556M135.556 260.533V257.323M130.071 257.323V254.112M130.071 257.323H135.556M135.556 257.323V254.112M130.071 254.112V250.901M130.071 254.112H135.556M135.556 254.112V250.901M130.071 250.901H135.556M130.071 250.901V247.69M135.556 250.901V247.69M130.071 247.69V244.48M130.071 247.69H135.556M135.556 247.69V244.48M130.071 244.48V241.269M130.071 244.48H135.556M135.556 244.48V241.269M130.071 241.269V238.058M130.071 241.269H135.556M135.556 241.269V238.058M130.071 238.058V234.848M130.071 238.058H135.556M135.556 238.058V234.848M130.071 234.848H135.556M130.071 234.848V231.637M135.556 234.848V231.637M130.071 231.637V228.426M130.071 231.637H135.556M135.556 231.637V228.426M130.071 228.426V225.215M130.071 228.426H135.556M135.556 228.426V225.215M130.071 225.215V222.005M130.071 225.215H135.556M135.556 225.215V222.005M130.071 222.005V218.794M130.071 222.005H135.556M135.556 222.005V218.794M130.071 218.794H135.556M130.071 218.794V215.583M135.556 218.794V215.583M130.071 215.583V212.372M130.071 215.583H135.556M135.556 215.583V212.372M130.071 212.372V209.162M130.071 212.372H135.556M135.556 212.372V209.162M130.071 209.162V205.951M130.071 209.162H135.556M135.556 209.162V205.951M130.071 205.951V202.74M130.071 205.951H135.556M135.556 205.951V202.74M130.071 202.74H135.556M130.071 202.74V199.53M135.556 202.74V199.53M130.071 199.53V196.319M130.071 199.53H135.556M135.556 199.53V196.319M130.071 196.319V193.108M130.071 196.319H135.556M135.556 196.319V193.108M130.071 193.108V189.897M130.071 193.108H135.556M135.556 193.108V189.897M130.071 189.897V186.687M130.071 189.897H135.556M135.556 189.897V186.687M130.071 186.687H135.556M130.071 186.687V183.476M135.556 186.687V183.476M130.071 183.476V180.265M130.071 183.476H135.556M135.556 183.476V180.265M130.071 180.265V177.055M130.071 180.265H135.556M135.556 180.265V177.055M130.071 177.055V173.844M130.071 177.055H135.556M135.556 177.055V173.844M130.071 173.844V170.633M130.071 173.844H135.556M135.556 173.844V170.633M130.071 170.633H135.556M130.071 170.633V167.422M135.556 170.633V167.422M130.071 167.422V164.212M130.071 167.422H135.556M135.556 167.422V164.212M130.071 164.212V161.001M130.071 164.212H135.556M135.556 164.212V161.001M130.071 161.001V157.79M130.071 161.001H135.556M135.556 161.001V157.79M130.071 157.79V154.579M130.071 157.79H135.556M135.556 157.79V154.579M130.071 154.579H135.556M130.071 154.579V151.369M135.556 154.579V151.369M130.071 151.369V148.158M130.071 151.369H135.556M135.556 151.369V148.158M130.071 148.158V144.947M130.071 148.158H135.556M135.556 148.158V144.947M130.071 144.947V141.737M130.071 144.947H135.556M135.556 144.947V141.737M130.071 141.737V138.526M130.071 141.737H135.556M135.556 141.737V138.526M130.071 138.526H135.556M130.071 138.526V135.315M135.556 138.526V135.315M130.071 135.315V132.104M130.071 135.315H135.556M135.556 135.315V132.104M130.071 132.104V128.894M130.071 132.104H135.556M135.556 132.104V128.894M130.071 128.894V125.683M130.071 128.894H135.556M135.556 128.894V125.683M130.071 125.683V122.472M130.071 125.683H135.556M135.556 125.683V122.472M130.071 122.472H135.556M130.071 122.472V119.262M135.556 122.472V119.262M130.071 119.262V116.051M130.071 119.262H135.556M135.556 119.262V116.051M130.071 116.051V112.84M130.071 116.051H135.556M135.556 116.051V112.84M130.071 112.84V109.629M130.071 112.84H135.556M135.556 112.84V109.629M130.071 109.629V106.419M130.071 109.629H135.556M135.556 109.629V106.419M130.071 106.419H135.556M130.071 106.419V103.208M135.556 106.419V103.208M130.071 103.208V99.9972M130.071 103.208H135.556M135.556 103.208V99.9972M130.071 99.9972V96.7865M130.071 99.9972H135.556M135.556 99.9972V96.7865M130.071 96.7865V93.5758M130.071 96.7865H135.556M135.556 96.7865V93.5758M130.071 93.5758V90.365M130.071 93.5758H135.556M135.556 93.5758V90.365M130.071 90.365V87.1543M130.071 90.365H135.556M135.556 90.365V87.1543M130.071 87.1543V83.9436M130.071 87.1543H135.556M135.556 87.1543V83.9436M130.071 83.9436V80.7329M130.071 83.9436H135.556M135.556 83.9436V80.7329M130.071 80.7329V77.5221M130.071 80.7329H135.556M135.556 80.7329V77.5221M130.071 77.5221H135.556M130.071 77.5221V74.3114M135.556 77.5221V74.3114M130.071 74.3114V71.1007M130.071 74.3114H135.556M135.556 74.3114V71.1007M130.071 71.1007V67.89M130.071 71.1007H135.556M135.556 71.1007V67.89M130.071 67.89V64.6793M130.071 67.89H135.556M135.556 67.89V64.6793M130.071 64.6793V61.4685M130.071 64.6793H135.556M135.556 64.6793V61.4685M130.071 61.4685H135.556M130.071 61.4685V58.2578M135.556 61.4685V58.2578M130.071 58.2578V55.0471M130.071 58.2578H135.556M135.556 58.2578V55.0471M130.071 55.0471V51.8364M130.071 55.0471H135.556M135.556 55.0471V51.8364M130.071 51.8364V48.6256M130.071 51.8364H135.556M135.556 51.8364V48.6256M130.071 48.6256V45.4149M130.071 48.6256H135.556M135.556 48.6256V45.4149M130.071 45.4149H135.556M130.071 45.4149V43.9433M135.556 45.4149V43.9433M130.071 43.9433V43.9433C129.635 43.9433 129.288 43.5773 129.312 43.1418L130.071 29.0938H135.556L136.315 43.1418C136.339 43.5773 135.992 43.9433 135.556 43.9433V43.9433M130.071 43.9433H135.556M131.141 40.3313C131.133 41.2579 131.887 42.0147 132.813 42.0147C133.74 42.0147 134.494 41.2579 134.486 40.3313C134.478 39.4128 133.732 38.6775 132.813 38.6775C131.895 38.6775 131.149 39.4128 131.141 40.3313Z" stroke="black" stroke-linecap="round"/>
<path fill-rule="evenodd" clip-rule="evenodd" d="M135.556 29.0938H130.071L129.312 43.1418C129.288 43.5773 129.635 43.9433 130.071 43.9433H135.556C135.992 43.9433 136.339 43.5773 136.315 43.1418L135.556 29.0938ZM132.813 42.0147C131.887 42.0147 131.133 41.2579 131.141 40.3313C131.149 39.4128 131.895 38.6775 132.813 38.6775C133.732 38.6775 134.478 39.4128 134.486 40.3313C134.494 41.2579 133.74 42.0147 132.813 42.0147Z" fill="black" fill-opacity="0.5"/>
</svg>
