<svg width="279" height="302" viewBox="0 0 279 302" fill="white" xmlns="http://www.w3.org/2000/svg">
<path d="M139.871 288.866C103.402 288.866 75.6988 290.21 63.5207 290.926C59.7255 291.15 56.4222 288.345 56.0159 284.565C55.5127 279.884 54.8565 274.187 54.4588 272.331C53.745 269 53.0313 265.656 53.0313 265.656L52.3175 263.528C49.2245 270.547 44.5852 274.829 44.5852 274.829L43.3957 276.614C40.9823 280.282 37.7859 294.054 36.6663 299.117C36.434 300.168 35.4185 300.856 34.358 300.674L5.68278 295.755C4.57554 295.565 3.8351 294.507 4.01473 293.398C4.68459 289.262 6.00053 279.482 5.09105 271.022L4.61521 269.119C4.61521 269.119 -15.3699 222.131 38.6373 49.8788C38.6373 49.8788 41.6113 39.8863 49.5815 32.273C57.5517 24.6596 93.3582 7.64858 93.3582 7.64858C99.7819 4.31777 102.518 0.511089 104.064 1.10587C109.655 0.39212 109.774 6.22108 139.752 6.22108C169.729 6.22108 170.205 0.154265 175.202 1.10587C176.986 0.39213 177.224 3.36609 185.67 7.64858C185.67 7.64858 222.19 25.2544 229.803 32.273C237.417 39.2915 241.105 49.8788 241.105 49.8788C294.041 227.484 274.77 269.119 274.77 269.119L274.532 271.022C273.502 277.385 275.123 288.825 275.861 293.419C276.038 294.518 275.301 295.562 274.203 295.75L245.457 300.663C244.367 300.849 243.333 300.125 243.128 299.039C242.211 294.168 239.625 281.556 236.584 276.614L235.514 274.829C235.514 274.829 228.733 269.119 227.424 263.528L226.83 265.656C226.83 265.656 225.64 269.357 225.283 272.093C225.076 273.679 224.23 279.942 223.555 284.927C223.056 288.607 219.79 291.265 216.083 291.034C204.089 290.286 176.498 288.866 139.871 288.866Z" />
<path d="M53.0313 265.656C53.0313 265.656 90.7405 262.339 139.99 262.339C189.239 262.339 226.83 265.656 226.83 265.656M53.0313 265.656L52.3175 263.528M53.0313 265.656C53.0313 265.656 53.745 269 54.4588 272.331C54.8565 274.187 55.5127 279.884 56.0159 284.565C56.4222 288.345 59.7255 291.15 63.5207 290.926C75.6988 290.21 103.402 288.866 139.871 288.866C176.498 288.866 204.089 290.286 216.083 291.034C219.79 291.265 223.056 288.607 223.555 284.927C224.23 279.942 225.076 273.679 225.283 272.093C225.64 269.357 226.83 265.656 226.83 265.656M226.83 265.656L227.424 263.528M52.3175 263.528C52.3175 263.528 93.3576 260.078 139.99 260.078C186.622 260.078 227.424 263.528 227.424 263.528M52.3175 263.528C49.2245 270.547 44.5852 274.829 44.5852 274.829M52.3175 263.528C43.3957 254.725 47.0834 212.495 46.8454 187.395M227.424 263.528C228.733 269.119 235.514 274.829 235.514 274.829M227.424 263.528C236.584 242.948 233.134 222.844 232.896 190.012M54.6967 74.1463C51.3659 66.652 38.6373 49.8788 38.6373 49.8788M54.6967 74.1463C54.3398 107.336 46.6075 162.295 46.8454 187.395M54.6967 74.1463C55.1725 54.1613 48.9867 46.9049 48.9867 46.9049M225.045 75.3359C231.469 60.704 241.105 49.8788 241.105 49.8788M225.045 75.3359C225.64 103.767 232.659 157.179 232.896 190.012M225.045 75.3359C224.45 57.968 230.755 46.9049 230.755 46.9049M38.6373 49.8788C-15.3699 222.131 4.61521 269.119 4.61521 269.119M38.6373 49.8788C38.6373 49.8788 41.6113 39.8863 49.5815 32.273C57.5517 24.6596 93.3582 7.64858 93.3582 7.64858M241.105 49.8788C294.041 227.484 274.77 269.119 274.77 269.119M241.105 49.8788C241.105 49.8788 237.417 39.2915 229.803 32.273C222.19 25.2544 185.67 7.64858 185.67 7.64858M4.61521 269.119C4.61521 269.119 11.396 268.286 22.6969 269.833C33.9978 271.379 44.5852 274.829 44.5852 274.829M4.61521 269.119L5.09105 271.022M274.77 269.119C274.77 269.119 271.987 268.537 259.378 270.084C246.768 271.63 235.514 274.829 235.514 274.829M274.77 269.119L274.532 271.022M44.5852 274.829L43.3957 276.614M5.09105 271.022C5.09105 271.022 13.5372 270.904 23.1727 272.212C32.8082 273.521 43.3957 276.614 43.3957 276.614M5.09105 271.022C6.00053 279.482 4.68459 289.262 4.01473 293.398C3.8351 294.507 4.57554 295.565 5.68278 295.755L34.358 300.674C35.4185 300.856 36.434 300.168 36.6663 299.117C37.7859 294.054 40.9823 280.282 43.3957 276.614M235.514 274.829L236.584 276.614M274.532 271.022C274.532 271.022 269.965 270.798 259.378 272.225C248.79 273.653 236.584 276.614 236.584 276.614M274.532 271.022C273.502 277.385 275.123 288.825 275.861 293.419C276.038 294.518 275.301 295.562 274.203 295.75L245.457 300.663C244.367 300.849 243.333 300.125 243.128 299.039C242.211 294.168 239.625 281.556 236.584 276.614M93.3582 7.64858C93.3582 7.64858 100.615 41.9086 139.752 41.9086C178.889 41.9086 185.67 7.64858 185.67 7.64858M93.3582 7.64858C99.7819 4.31777 102.518 0.511089 104.064 1.10587M185.67 7.64858C177.224 3.36609 176.986 0.39213 175.202 1.10587M104.064 1.10587C109.655 0.39212 109.774 6.22108 139.752 6.22108C169.729 6.22108 170.205 0.154265 175.202 1.10587M104.064 1.10587C104.064 1.10587 103.47 6.22108 107.633 13.0017M175.202 1.10587C175.202 1.10587 176.034 4.1988 171.633 13.2396M107.633 13.0017C107.633 13.0017 122.622 16.2136 139.752 16.2136C156.882 16.2136 171.633 13.2396 171.633 13.2396M107.633 13.0017L110.25 16.9273M171.633 13.2396L168.897 17.5221M110.25 16.9273C110.25 16.9273 120.481 30.3696 139.752 30.3696C159.023 30.3696 168.897 17.5221 168.897 17.5221M110.25 16.9273C110.25 16.9273 124.882 19.9013 139.752 19.9013C154.622 19.9013 168.897 17.5221 168.897 17.5221M46.8454 187.395C38.5182 179.543 31.1428 160.391 31.1428 160.391M232.896 190.012C243.603 175.142 250.502 160.034 250.502 160.034" stroke="black" stroke-linecap="round" fill="none" />
<path d="M110.25 16.9273C110.25 16.9273 120.481 30.3696 139.752 30.3696C159.023 30.3696 168.897 17.5221 168.897 17.5221C168.897 17.5221 154.622 19.9013 139.752 19.9013C124.882 19.9013 110.25 16.9273 110.25 16.9273Z" fill="black" fill-opacity="0.4"/>
<path d="M139.752 16.2136C122.622 16.2136 107.633 13.0017 107.633 13.0017L110.25 16.9273C110.25 16.9273 124.882 19.9013 139.752 19.9013C154.622 19.9013 168.897 17.5221 168.897 17.5221L171.633 13.2396C171.633 13.2396 156.882 16.2136 139.752 16.2136Z" fill="black" fill-opacity="0.4"/>
<path d="M139.752 6.22108C109.775 6.22108 109.656 0.392117 104.065 1.10587C104.065 1.10587 103.47 6.22108 107.633 13.0017C107.633 13.0017 122.622 16.2136 139.752 16.2136C156.882 16.2136 171.633 13.2396 171.633 13.2396C176.034 4.1988 175.202 1.10587 175.202 1.10587C170.205 0.154262 169.73 6.22108 139.752 6.22108Z" fill="black" fill-opacity="0.4"/>
<path d="M107.633 13.0017C103.47 6.22108 104.065 1.10587 104.065 1.10587C109.656 0.392117 109.775 6.22108 139.752 6.22108C169.73 6.22108 170.205 0.154262 175.202 1.10587C175.202 1.10587 176.034 4.1988 171.633 13.2396M107.633 13.0017C107.633 13.0017 122.622 16.2136 139.752 16.2136C156.882 16.2136 171.633 13.2396 171.633 13.2396M107.633 13.0017L110.25 16.9273M171.633 13.2396L168.897 17.5221M110.25 16.9273C110.25 16.9273 120.481 30.3696 139.752 30.3696C159.023 30.3696 168.897 17.5221 168.897 17.5221M110.25 16.9273C110.25 16.9273 124.882 19.9013 139.752 19.9013C154.622 19.9013 168.897 17.5221 168.897 17.5221" stroke="black" stroke-linecap="round" fill="none" />
</svg>
