<svg width="293" height="302" viewBox="0 0 293 302" fill="white" xmlns="http://www.w3.org/2000/svg">
<path d="M146.869 301C86.1952 301 63.6388 297.252 58.0891 296.086C57.2152 295.902 56.6215 295.128 56.6215 294.235V283.679L62.2358 134.48L58.4133 141.528L54.776 148.243C54.2237 149.263 52.9231 149.6 51.9446 148.979L1.58026 116.969C0.691167 116.404 0.392825 115.246 0.898141 114.322L4.89764 107.006C4.89764 107.006 41.0924 43.6949 44.0787 39.0362C47.0651 34.3774 49.0958 32.5856 49.0958 32.5856C49.0958 32.5856 51.246 29.7187 55.9047 27.4491C60.5635 25.1794 100.342 7.14179 100.342 7.14179C109.779 2.36358 109.301 1.04961 110.734 1.04961C113.243 0.33288 119.096 7.61961 146.869 7.61961C174.643 7.61961 179.66 0.452306 182.049 1.04961C183.602 1.04955 181.571 2.00527 192.68 7.14179C192.68 7.14179 232.817 25.1794 237.117 27.4491C241.418 29.7187 243.687 32.5856 243.687 32.5856C243.687 32.5856 245.36 33.5413 248.943 39.0362C252.527 44.5311 287.766 107.006 287.766 107.006L291.965 114.427C292.49 115.355 292.195 116.532 291.293 117.102L241.005 148.91C240.054 149.512 238.792 149.21 238.217 148.242L234.37 141.767L231.145 136.153L236.401 283.679L236.609 294.216C236.627 295.118 236.038 295.908 235.156 296.096C229.632 297.274 207.37 301 146.869 301Z" />
<path d="M56.6215 283.679V294.235C56.6215 295.128 57.2152 295.902 58.0891 296.086C63.6388 297.252 86.1952 301 146.869 301C207.37 301 229.632 297.274 235.156 296.096C236.038 295.908 236.627 295.118 236.609 294.216L236.401 283.679M56.6215 283.679C56.6215 283.679 82.0653 288.338 146.869 288.338C211.673 288.338 236.401 283.679 236.401 283.679M56.6215 283.679L62.2358 134.48M236.401 283.679L231.145 136.153M62.2358 134.48C62.2358 134.48 63.1915 97.4494 60.3245 75.5892C57.4576 53.7291 49.0958 32.5856 49.0958 32.5856M62.2358 134.48L58.4133 141.528M231.145 136.153C231.145 136.153 229.472 98.2856 232.459 75.5892C235.445 52.8929 243.687 32.5856 243.687 32.5856M231.145 136.153L234.37 141.767M49.0958 32.5856C49.0958 32.5856 47.0651 34.3774 44.0787 39.0362C41.0924 43.6949 4.89764 107.006 4.89764 107.006M49.0958 32.5856C49.0958 32.5856 51.246 29.7187 55.9047 27.4491C60.5635 25.1794 100.342 7.14179 100.342 7.14179M243.687 32.5856C243.687 32.5856 245.36 33.5413 248.943 39.0362C252.527 44.5311 287.766 107.006 287.766 107.006M243.687 32.5856C243.687 32.5856 241.418 29.7187 237.117 27.4491C232.817 25.1794 192.68 7.14179 192.68 7.14179M234.37 141.767L261.068 124.386L287.766 107.006M234.37 141.767L238.217 148.242C238.792 149.21 240.054 149.512 241.005 148.91L291.293 117.102C292.195 116.532 292.49 115.355 291.965 114.427L287.766 107.006M4.89764 107.006L31.6555 124.267L58.4133 141.528M4.89764 107.006L0.898141 114.322C0.392825 115.246 0.691167 116.404 1.58026 116.969L51.9446 148.979C52.9231 149.6 54.2237 149.263 54.776 148.243L58.4133 141.528M100.342 7.14179C100.342 7.14179 109.54 44.5311 146.869 44.5311C184.199 44.5311 192.68 7.14179 192.68 7.14179M100.342 7.14179C109.779 2.36358 109.301 1.04961 110.734 1.04961M192.68 7.14179C181.571 2.00527 183.602 1.04955 182.049 1.04961M110.734 1.04961C113.243 0.33288 119.096 7.61961 146.869 7.61961C174.643 7.61961 179.66 0.452306 182.049 1.04961M110.734 1.04961C110.734 1.04961 110.734 6.78343 113.243 12.3978M182.049 1.04961C182.049 1.04961 181.69 6.90288 179.66 12.3978M177.629 16.4592C177.629 16.4592 168.073 34.4969 146.869 34.4969C125.666 34.4969 115.154 16.1009 115.154 16.1009M177.629 16.4592L179.66 12.3978M177.629 16.4592C177.629 16.4592 166.161 20.2818 146.869 20.2818C127.577 20.2818 115.154 16.1009 115.154 16.1009M179.66 12.3978C179.66 12.3978 167.595 17.2954 146.869 17.2954C126.144 17.2954 113.243 12.3978 113.243 12.3978M115.154 16.1009L113.243 12.3978" stroke="black" stroke-linecap="round" fill="none" />
<path d="M110.734 1.04961C113.243 0.33288 119.096 7.61961 146.869 7.61961C174.643 7.61961 179.66 0.452306 182.049 1.04961C182.049 1.04961 181.69 6.90288 179.66 12.3978L177.629 16.4592C177.629 16.4592 168.073 34.4969 146.869 34.4969C125.666 34.4969 115.154 16.1009 115.154 16.1009L113.243 12.3978C110.734 6.78343 110.734 1.04961 110.734 1.04961Z" fill="black" fill-opacity="0.5"/>
<path d="M177.629 16.4592C177.629 16.4592 168.073 34.4969 146.869 34.4969C125.666 34.4969 115.154 16.1009 115.154 16.1009M177.629 16.4592L179.66 12.3978M177.629 16.4592C177.629 16.4592 166.161 20.2818 146.869 20.2818C127.577 20.2818 115.154 16.1009 115.154 16.1009M179.66 12.3978C181.69 6.90288 182.049 1.04961 182.049 1.04961C179.66 0.452306 174.643 7.61961 146.869 7.61961C119.096 7.61961 113.243 0.33288 110.734 1.04961C110.734 1.04961 110.734 6.78343 113.243 12.3978M179.66 12.3978C179.66 12.3978 167.595 17.2954 146.869 17.2954C126.144 17.2954 113.243 12.3978 113.243 12.3978M115.154 16.1009L113.243 12.3978" stroke="black" stroke-linecap="round" fill="none" />
</svg>
